<?xml version="1.0" encoding="UTF-8"?>
<svg width="180" height="180" viewBox="0 0 180 180" xmlns="http://www.w3.org/2000/svg">
    <clipPath id="clipPath1">
        <path clip-rule="evenodd" d="M 0 157.5 C 0 169.926407 10.073593 180 22.5 180 L 157.5 180 C 169.926407 180 180 169.926407 180 157.5 L 180 22.5 C 180 10.073593 169.926407 0 157.5 0 L 22.5 0 C 10.073593 0 0 10.073593 0 22.5 Z"/>
    </clipPath>
    <g clip-path="url(#clipPath1)">
        <circle cx="90" cy="90" r="85" fill="#ffffff"/>
        <path id="Rounded-Stencil" fill="#1d49d5" fill-rule="evenodd" stroke="none" d="M 0 180 L 0 0 L 180 0 L 180 180 L 0 180 Z M 68.203125 122.871094 L 57.128906 147.480469 L 32.519531 147.480469 L 43.950306 122.871094 L 68.203125 122.871094 Z M 111.796875 122.871094 L 68.203125 122.871094 L 78.574219 101.074219 L 54.074707 101.074219 L 90 23.730469 L 125.925293 101.074219 L 101.425781 101.074219 L 111.796875 122.871094 Z M 111.796875 122.871094 L 122.871094 147.480469 L 147.480469 147.480469 L 136.049698 122.871094 L 111.796875 122.871094 Z M 101.425781 101.074219 L 90 76.464844 L 78.574219 101.074219 L 101.425781 101.074219 Z"/>
    </g>
</svg>
