<?xml version="1.0" encoding="UTF-8"?>
<svg width="1000" height="1000" viewBox="0 0 1000 1000" xmlns="http://www.w3.org/2000/svg">
    <path id="Path" fill="#d97757" stroke="none" d="M 643.643982 211.760986 C 628.170959 228.667969 631.14801 238.471985 624.27301 257.434021 C 620.697998 267.302002 610.911011 277.299011 603.123962 284.015991 C 581.678955 302.509033 561.607971 320.411987 536.919983 334.979004 C 520.672974 344.561035 483.830017 371.474976 480.539978 374.442017 C 479.471008 375.410034 477.802979 378.109009 477.028992 378.459961 C 472.429993 380.559998 463.353027 380.053955 458.257019 380.781006 C 437.596008 383.72998 418.999023 394.776978 415.442017 416.881958 C 415.385986 417.195007 415.68103 422.750977 415.737 423.146973 C 416.85199 431.881958 421.588989 447.39801 427.966003 453.415039 C 446.073975 470.497986 475.138977 468.968018 494.334991 454.493042 C 498.584015 449.480957 501.485992 450.052002 506.692993 448.790039 C 509.264008 448.162964 512.304993 446.015991 514.083984 445.629028 C 518.691956 444.615967 527.11499 446.964966 532.552002 447.057007 C 536.292969 447.122009 540.209961 446.265015 543.979004 446.670044 C 562.823975 448.716003 582.979004 456.80603 601.455994 460.528015 C 607.713013 461.791016 620.46698 461.791016 625.406982 463.707031 C 626.078979 463.964966 636.161011 471.603027 636.825012 472.377014 C 639.404968 475.390015 640.620972 482.079956 641.072998 483.184998 C 648.906006 502.019043 662.562988 504.562012 671.382996 508.283997 C 673.870972 509.334961 679.768982 508.634033 682.643982 508.164001 C 690.909973 506.81897 705.073975 501.853027 710.677002 495.504028 C 716.279968 489.156006 728.342957 467.309998 729.632996 459.200989 C 730.416992 454.290039 728.849976 447.868042 729.338989 444.882996 C 729.503967 443.859985 734.914001 433.338013 735.779968 432.195007 C 739.346008 427.495972 750.479004 420.557983 755.372009 416.125977 C 767.268982 405.35498 779.434021 395.062988 791.542969 384.476013 C 798.610962 378.302979 805.125977 370.875977 812.388 365.135986 C 829.067993 351.950989 848.982971 343.096008 866.132996 329.957031 C 867.367981 329.016968 868.085999 327.414001 868.942993 326.742004 C 874.619995 322.328003 884.572998 314.891968 891.945007 314.661987 C 894.387024 314.588013 900.893372 317.039001 905.307617 316.947021 C 927.138977 316.485962 947.468323 310.332031 949.716797 285.453979 C 952.776428 251.684998 936.308411 222.182007 898.424011 232.160034 C 886.396973 235.330017 874.112976 240.682983 869.53302 253.528015 C 868.796021 255.601013 870.583984 255.747986 867.145996 255.619019 C 861.359009 255.406982 854.815979 252.403015 848.927002 251.233032 C 819.742004 245.401001 790.270996 246.929993 760.606995 245.604004 C 751.464966 245.197998 745.539001 243.466003 736.959961 241.614014 C 728.610962 239.817017 720.307007 237.964966 711.994995 236.057983 C 711.008972 233.561035 710.078003 230.999023 708.723999 228.658997 C 704.531006 221.434998 690.135986 207.908997 682.127991 205.513977 C 676.570984 203.85498 667.21698 200.721985 661.291992 202.012024 C 653.763 203.661987 648.758972 206.112 643.615967 211.723999 L 643.643982 211.760986 Z M 713.247986 261.249023 C 720.223999 261.911987 727.107971 259.552979 734.037964 260.161987 C 751.575012 261.690979 772.346985 264.205994 789.755005 267.192017 C 802.453979 269.365967 814.213013 273.190002 826.994995 275.190002 C 837.932983 276.903015 858.934998 275.502991 863.580017 287.360962 C 865.718018 292.807007 860.916992 295.718018 857.664001 299.901001 C 849.682983 310.156006 841.343018 316.38501 831.942993 325.174988 C 824.976013 331.688965 818.838989 339.023987 811.328003 344.976013 C 792.205994 360.132996 770.052002 373.410034 750.745972 388.263 C 740.719971 395.974976 733.531982 404.073975 724.906006 412.551025 C 718.10498 419.230957 712.547974 422.640015 702.779968 418.513 C 688.94696 412.671021 687.794983 409.796021 671.188965 410.367004 C 653.623962 410.984985 645.487 415.849976 636.510986 430.915039 C 629.894958 431.578003 622.208984 436.655029 615.665955 435.291016 C 614.726013 435.098022 589.908997 432.812988 577.753967 432.480957 C 574.64801 432.39801 571.07196 431.153992 568.224976 430.960999 C 561.994995 430.546021 554.723999 431.641968 548.770996 430.822021 C 542.440002 429.947021 534.781982 426.214966 528.929993 424.446045 C 518.867004 421.396973 510.997009 422.11499 503.946991 412.358032 C 500.859985 408.092041 499.496002 401.780029 500.777008 396.666016 C 500.832001 396.436035 502.167999 392.593994 502.269989 392.381958 C 502.674988 391.571045 508.407013 387.333008 509.200012 386.513 C 510.527008 385.130005 513.476013 380.44104 514.737976 379.490967 C 516.442993 378.210999 528.404968 367.182007 532.08197 362.666992 C 534.781982 359.359009 541.204956 355.903992 544.817993 352.799011 C 550.982971 347.500977 556.02301 340.848022 561.930969 335.245972 C 580.757996 317.389038 606.320984 300.73999 629.25 288.531006 C 635.570984 285.167969 641.755005 280.791992 649.47699 281.916016 C 655.079956 282.72699 661.659973 286.697998 667.244995 287.240967 C 673.750977 287.877014 687.307007 284.606018 693.416992 281.869995 C 702.170959 277.953979 710.575989 270.776001 713.239014 261.249023 L 713.247986 261.249023 Z"/>
    <path id="path1" fill="#d97757" stroke="none" d="M 151.814026 169.953003 C 147.085999 175.186035 138.377014 184.492004 132.765015 188.335022 C 129.732971 190.40802 125.622986 191.882019 122.89502 194.037964 C 118.747986 197.309021 116.979004 201.768982 110.924988 203.169006 C 95.93103 206.624023 85.112 206.025024 73.453979 217.247986 C 67.179016 223.291992 62.138 238.311035 63.132996 247.184021 C 64.940002 263.234985 78.827026 273.195007 84.531006 286.573975 C 88.060974 294.848022 89.304993 316.519043 89.682983 326.129028 C 89.995972 334.062988 88.908997 350.573975 83.674011 356.618042 C 74.974976 366.671021 64.552002 368.947021 57.125 381.450012 C 52.857971 388.627991 49.356018 396.86499 50.221985 405.396973 C 52.01001 422.867004 60.765015 430.947021 75.711975 438.557983 C 80.070984 440.778992 87.978027 443.846985 92.835022 443.294006 C 94.807007 443.072998 110.536987 437.046997 112.565002 435.877014 C 119.403015 431.924011 129.447998 420.416016 131.677979 412.796021 C 134.111023 404.457031 130.322998 389.346008 126.885986 381.367004 C 122.15802 370.393005 109.275024 363.10498 106.142029 351.872986 C 105.017029 347.837036 105.560974 337.315002 105.911011 332.661987 C 106.380981 326.406006 108.851013 300.495972 110.630005 296.212036 C 111.523987 294.065002 116.325012 286.27002 118.093994 284.676025 C 119.864014 283.082031 122.544983 282.344971 124.536011 281.330994 C 141.492004 272.707031 149.187012 261.484009 145.317017 241.877014 C 143.620972 233.299011 139.049988 229.953979 140.008972 220.69397 C 140.192993 218.924988 141.528992 212.77002 142.239014 211.369995 C 144.247986 207.416992 155.039001 193.015015 158.27301 189.218994 C 164.116028 182.372986 175.432983 171.75 182.372009 166.09198 C 186.573975 162.664978 193.458008 157.955994 199.04303 157.61499 C 202.15802 157.43103 209.437988 158.841003 214.146973 158.867981 C 232.228027 158.950989 242.263 155.145996 255.265991 142.52301 C 276.674011 121.72699 268.388977 84.880371 244.106018 69.760315 C 235.518005 64.416199 235.461975 65.936523 226.606018 65.15332 C 219.859985 64.554382 212.598999 62.693176 205.650024 64.794006 C 197.328979 67.318604 192.711975 72.174377 186.398987 77.195984 C 182.169006 80.559021 177.210999 82.807312 174.335999 87.736694 C 168.549011 97.660095 165.978027 112.780029 168.807007 123.947998 C 169.968018 128.536011 173.221008 132.156982 174.013977 136.598022 C 172.088013 139.55603 171.119995 145.130005 169.609009 147.812012 C 167.950012 150.750977 154.752991 166.718994 151.822998 169.962036 L 151.814026 169.953003 Z"/>
    <path id="path2" fill="#d97757" stroke="none" d="M 492.85199 692.487 C 488.622009 697.526978 488.971985 700.622009 487.507019 706.482971 C 486.20697 711.651978 484.484009 714.747009 484.825012 720.607971 C 485.617981 734.271973 494.041016 745.937012 503.458984 754.606995 C 504.59198 755.64801 507.844971 756.330017 508.140015 756.708008 C 508.361023 757.002991 509.486023 763.10199 509.586975 764.03302 C 510.601013 773.541992 507.062012 784.322021 505.864014 793.682983 C 504.242004 806.315979 503.846008 819.380981 501.578979 832.049988 C 500.749023 836.721985 497.588989 848.718018 495.718018 852.81897 C 491.09198 862.971985 475.30603 865.580017 469.703003 872.268982 C 465.158997 877.695984 459.335022 895.598999 460.026001 902.5 C 461.114014 913.437012 469.932983 925.517029 478.807007 931.698975 C 483.276978 934.814026 486.289978 934.731018 491.377014 935.458008 C 495.440979 936.030029 504.288025 935.864014 508.914001 935.375977 C 519.715027 934.252014 536.541992 921.130981 538.348022 910.01001 C 540.43103 897.156006 537.942993 882.54303 528.838013 872.895996 C 526.948975 870.895996 520.820984 867.560974 519.945007 866.473999 C 519.577026 866.004028 517.291016 855.849976 517.291016 854.827026 C 517.27301 838.242004 527.565979 815.788025 531.216003 799.405029 C 532.86499 792.005981 532.036011 780.747009 536.164001 774.711975 C 539.877991 769.265991 545.030029 772.187012 549.223022 775.182007 C 553.112 777.955017 554.382996 780.755981 557.184998 784.046021 C 560.750977 788.229004 565.192993 789.83197 569.239014 793.361023 C 589.973022 811.466003 603.216003 842.710999 620.47699 864.427979 C 624.263977 869.200989 625.619019 868.656982 627.184998 875.549011 C 629.065002 883.786987 627.655029 890.963989 629.757019 899.578979 C 629.913025 900.242981 633.322998 917.453979 642.934998 921.591003 C 653.182007 925.995972 662.627991 925.396973 673.179993 921.26001 C 676.341003 920.015991 681.463989 916.275024 683.859985 914.359009 C 689.711975 909.669006 690.52301 894.059998 688.882996 887.205017 C 685.132019 871.541016 671.953979 863.359009 656.692993 861.580994 C 655.643005 861.460999 654.601013 862.143005 653.330017 862.013977 C 642.059021 860.872009 629.747009 842.103027 622.549988 833.96698 C 612.330017 822.403015 607.004028 817.086975 598.395996 803.86499 C 593.872009 796.916992 587.559021 789.932983 583.697998 782.893982 C 579.044006 774.398987 577.109009 765.93103 571.541992 757.370972 C 568.317017 752.395996 566.547974 753.666992 567.036011 746.323975 C 567.450989 740.067017 571.653015 734.520996 571.966003 730.088989 C 572.077026 728.559021 572.559021 725.166992 572.882019 723.416016 C 573.414001 719.161011 572.961975 718.349976 572.73999 714.351013 C 570.593018 675.164001 516.674011 664.143982 492.843018 692.495972 L 492.85199 692.487 Z"/>
    <path id="path3" fill="#141413" stroke="none" d="M 320.986023 193.036987 C 311.138 202.166992 299.872009 209.510986 291.379028 220.216003 C 277.596985 237.578003 265.744995 257.714966 254.734985 276.761963 C 243.304016 296.532959 237.557007 313.912964 233.640015 336.531982 C 230.419006 355.120972 230.21698 374.662964 223.710022 392.492004 C 220.489014 401.328979 214.869019 418.049988 210.403015 425.358032 C 209.752991 426.420044 206.971008 429.424011 205.489014 431.676025 C 188.924011 456.914001 170.025024 468.771973 164.203979 502.196991 C 160.031006 526.169983 168.176025 541.875 178.674011 562.479004 C 186.781982 578.403992 194.872009 581.78302 205.799988 593.750977 C 209.450989 597.752991 220.049011 613.677002 221.651001 618.328979 C 227.205994 634.419006 222.419983 657.677979 222.474976 674.875977 C 222.583984 712.072998 236.083984 747.676025 268.059998 767.593018 C 280.369995 775.257996 306.68103 782.583984 321.096008 785.421997 C 325.973999 786.383972 333.010986 786.200989 337.90802 787.070984 C 342.127014 787.822021 356.156982 794.945984 359.351013 797.921997 C 360.146973 798.664001 369.79303 814.424011 370.890991 816.474976 C 375.713989 825.486023 372.182007 832.664978 371.715027 842.124023 C 370.671997 863.606995 380.317993 881.335999 403.655029 867.591003 C 413.072021 862.041992 413.127014 847.03302 413.135986 837.601013 C 413.145996 824.799011 410.994995 805.578003 403.453979 794.872986 C 400.507019 790.679016 389.085022 778.645996 384.692017 777.198975 C 374.835999 773.958008 361.822021 772.070984 351.562012 770.405029 C 338.45697 768.270996 325.112976 767.731018 312.822021 762.73999 C 303.203979 758.830017 298.572998 752.950989 290.481995 747.034973 C 289.164978 746.073975 287.06897 745.596985 285.896973 744.745972 C 281.138 741.265991 270.84198 726.778992 267.510986 721.211975 C 247.130005 687.156006 255.000977 656.890991 247.697021 620.718994 C 246.755005 616.031006 248.164001 613.861023 247.94397 609.482971 C 247.606018 602.697998 246.507996 596.552979 242.471985 591.004028 C 234.638 580.226013 224.643982 575.546997 215.281006 567.286987 C 207.995972 560.867004 199.192017 551.947998 194.351013 543.304016 C 187.898987 531.79303 185.684021 513.53302 192.164001 501.730011 C 197.838013 491.399994 202.760986 479.257996 211.291016 470.952026 C 225.559021 457.06897 246.250977 432.207031 254.039978 413.874023 C 265.049011 387.958984 261.892029 358.509033 265.973999 330.954956 C 270.09198 303.13501 279.536987 277.01001 294.664978 253.328979 C 297.905029 248.255981 312.31897 228.018005 316.052979 224.804016 C 319.786987 221.589966 327.245972 218.036987 331.528992 214.832031 C 338.127014 209.895996 342.849976 203.596008 348.981995 198.348022 C 358.40802 190.281006 370.278015 184.695007 379.421021 177.386963 C 382.093018 175.254028 384.262024 171.453003 387.69397 169.686035 C 391.492004 167.735962 392.059998 167.507019 395.664978 165.18103 C 403.765015 159.969971 415.937012 161.096985 425.088989 158.669983 C 428.245972 157.837036 432.200012 155.437012 435.320984 154.429993 C 454.741028 148.184998 479.405029 143.835022 499.658997 142.416016 C 543.423035 135.859009 587.77301 139.879028 630.156006 152.140991 C 652.578003 158.624023 681.68103 177.542969 701.650024 190.437012 C 720.631042 202.688965 738.90802 221.81897 752.86499 239.537964 C 768.578003 259.492004 775.71698 272.083008 783.075012 296.678955 C 786.772034 309.051025 789.005005 321.247986 791.924988 333.756958 C 794.460022 344.627014 798.53302 354.416016 800.811035 365.799011 C 806.549988 394.479004 808.828003 435.43103 805.158997 464.559998 C 802.796997 483.278015 799.877991 509.09201 792.546997 526.335022 C 784.291992 545.767029 773.382996 562.304993 761.275024 579.437988 C 753.578003 590.335999 749.341003 595.041992 743.484009 607.541992 C 739.091003 616.919006 733.298035 627.551025 729.343994 636.835999 C 724.796021 647.531982 722.325012 668.14502 720.997986 679.903015 C 718.627014 700.892029 722.114014 722.328979 723.916992 743.270996 C 726.333008 771.348022 728.080994 800.138 734.304016 827.747009 C 737.013 839.780029 739.905029 860.705017 750.145996 868.809021 C 753.458984 871.427979 758.328003 872.838013 761.09198 872.820007 C 765.29303 872.791992 774.828979 870.593994 776.942993 866.674988 C 781.765991 857.718994 776.733032 837.5 773.356018 828.114014 C 758.007996 785.413025 747.575012 747.007996 752.937988 700.882019 C 753.322021 697.594971 755.307983 692.054993 755.390015 689.317017 C 756.286987 661.578979 757.330994 639.088989 771.63501 614.254028 C 783.330994 593.934021 792.244995 575.362976 802.843018 554.622009 C 806.595032 547.286987 812.160034 539.622009 815.481995 532.323975 C 818.475037 525.73999 820.71698 517.755005 823.499023 510.886993 C 828.531982 498.441986 833.950012 488.799011 836.138 475.109009 C 840.429993 448.323975 837.18103 397.822021 830.893982 371.146973 C 829.502991 365.23999 825.877991 357.593994 824.853027 352.237 C 822.840027 341.796997 823.572021 329.820007 820.991028 318.656982 C 810.439026 273.109009 767.937988 226.828003 733.929016 196.096008 C 717.575012 181.315979 699.718994 170.13501 680.692993 159.009033 C 642.757996 136.830017 597.611023 122.966003 553.554016 121.427002 C 531.424988 120.65802 509.588013 120.237 487.322021 122.580994 C 481.163025 123.231018 474.820007 125.713013 469.182983 126.400024 C 464.606995 126.958008 458.922974 126.445007 454.28302 126.96698 C 447.044006 127.781982 440.098022 128.734985 432.822021 129.448975 C 425.546021 130.162964 409.658997 138.02002 402.958984 142.004028 C 397.98999 144.960999 399.473022 143.936035 394.054993 145.575012 C 375.861023 151.078003 352.661011 166.672974 337.312988 178.166016 C 331.392029 182.598022 326.403992 188.018982 320.994995 193.036987 L 320.986023 193.036987 Z"/>
</svg>
