<?xml version="1.0" encoding="UTF-8"?>
<svg width="800" height="800" viewBox="0 0 800 800" xmlns="http://www.w3.org/2000/svg">
    <g id="Path">
        <path id="path1" fill="#e3dacc" stroke="none" d="M 186.088989 651.307983 C 169.548981 631.882935 164.798004 610.582031 172.143982 585.541016 C 181.083008 555.065063 201.772003 547.182007 231.684021 548.829956 C 233.776978 548.947998 239.411987 550.376953 240.649963 550.276978 C 241.197021 550.231079 241.559998 550.049011 241.879028 549.593994 C 244.481995 545.525024 247.104004 541.510986 249.388977 537.242004 C 254.904968 526.918945 258.572998 515.47699 263.989014 505.190979 C 267.612 498.328003 272.454956 492.565979 275.677002 485.119995 C 282.859009 468.544006 288.476013 449.518982 293.200012 432.15097 C 296.531006 419.880981 305.770996 403.422943 311.196045 391.570984 C 313.827026 385.828003 316.103027 383.678986 314.755981 376.825012 C 313.736023 371.655029 312.442993 372.974945 309.166016 371 C 302.02002 366.69397 290.514038 353.276001 287.628967 345.393982 C 282.330994 330.947968 288.621033 297.504028 299.153015 286.18103 C 301.482971 283.677002 304.733032 281.802002 307.454956 279.735962 C 311.086975 276.968994 312.78894 275.438965 317.430969 273.682983 C 324.895996 270.860962 346.695984 270.450989 355.062012 271.406982 C 375.232971 273.718994 399.127991 294.155029 400.984985 315.355011 C 401.768005 324.256989 398.344971 333.351013 402.877991 341.762024 C 403.388 342.698975 411.570984 348.143005 413.054993 348.953003 C 416.851013 351.036987 421.73999 352.439026 425.844971 355.015015 C 429.686035 357.427002 433.290955 361.049988 437.158997 363.544006 C 443.357971 367.531006 450.649963 370.262024 456.638977 374.339996 C 469.119019 382.833008 481.325012 391.070953 494.860962 398.143982 C 507.450012 404.724976 522.888 408.18399 535.541016 414.036957 C 538.453918 415.383972 543.460022 419.643951 546.637024 419.71698 C 547.965942 419.744019 554.856995 417.296021 555.859009 416.485992 C 557.223999 415.383972 561.274963 408.111023 563.559021 405.825989 C 569.320923 400.046021 572.205994 401.001984 578.187012 398.125977 C 579.088013 397.688995 579.789001 396.231995 580.718018 395.694977 C 585.059998 393.174011 592.26001 392.637024 597.302979 392.955017 C 603.429016 393.336975 608.963989 397.187988 614.770996 397.242004 C 615.872009 397.251984 624.018982 395.577026 624.838013 395.176025 C 625.330017 394.939026 630.736938 387.557007 631.502014 386.447021 C 637.481934 377.781006 645.920959 364.927979 650.226013 355.533997 C 653.994995 347.314026 656.442993 338.494019 660.203003 330.264984 C 665.182007 319.350983 674.912964 306.625 671.353027 294.009033 C 668.731934 284.752014 657.734924 279.453979 653.593018 268.093994 C 647.067017 250.161011 659.401001 218.457031 676.596008 209.635925 C 683.369019 206.158997 683.622986 208.270996 689.539978 207.687988 C 696.249023 207.032959 698.307007 204.119995 707.382019 204.829956 C 741.398926 207.488037 766.093994 238.164001 751.437988 271.634033 C 746.332031 283.286011 727.643982 299.615967 715.40094 303.093018 C 711.60498 304.167969 707.718018 303.511963 705.088013 304.186035 C 704.094971 304.44101 695.940002 310.239014 694.79303 311.268005 C 691.11499 314.571991 690.750977 317.958008 688.26593 321.617004 C 679.127014 335.070984 664.999939 347.987976 658.836914 363.161987 C 655.861023 370.48999 654.776978 378.61795 652.374023 385.992004 C 651.144958 389.768982 646.211975 398.63501 646.130005 401.638977 C 645.938965 409.15802 647.412964 417.877991 651.026978 424.085999 C 664.554016 447.280029 660.083984 474.624023 641.969971 494.258972 C 633.421997 503.526001 616.563965 512.437012 603.810974 511.562988 C 575.210999 509.596954 549.304016 495.77002 545.973022 464.684021 C 545.380981 459.195007 546.419006 452.322998 545.353943 446.93399 C 545.198914 446.151001 541.512024 439.332977 540.974976 438.905029 C 537.835022 436.366028 530.872009 433.825989 527.267029 431.768982 C 488.953979 409.932007 450.703979 387.739014 412.190979 366.221008 C 409.096008 365.546967 399.55603 358.692993 397.44397 358.719971 C 396.89801 358.719971 392.291992 359.703003 391.664001 359.921021 C 382.842957 362.934021 377.045044 370.390015 368.451965 373.92099 C 360.933044 377.015991 354.434021 376.716003 346.906006 378.171997 C 342.77301 378.973022 341.927002 382.186981 339.369019 384.534973 C 337.165955 386.55603 333.407043 388.967987 331.740967 391.299011 C 327.335999 397.452026 322.674011 409.950012 318.950989 417.222992 C 315.837952 423.294006 311.368958 429.574982 308.584045 435.646973 C 306.143982 440.963013 305.116028 446.760956 303.112976 452.02301 C 292.007996 481.159973 281.084045 510.343994 269.878967 539.416992 C 268.330933 547.164063 264.198975 554.490967 263.416016 562.24707 C 267.139038 565.159912 269.733032 570.784912 271.280029 575.264038 C 280.473999 601.953003 281.575989 638.062988 255.396973 655.513062 C 237.86499 667.200928 200.579987 668.383972 186.079987 651.353027 L 186.088989 651.307983 Z"/>
        <path id="path2" fill="#141413" fill-rule="evenodd" stroke="none" d="M 162.548248 582.72644 C 154.384399 610.555359 159.530426 635.172363 177.919708 657.13324 C 178.090424 657.374207 178.272552 657.608643 178.46582 657.835632 C 195.629578 677.9953 237.929199 679.176575 260.943909 663.833618 C 288.635681 645.375183 293.316223 608.529419 280.734741 572.007019 C 279.021362 567.046143 276.917175 562.656372 274.194946 559.094238 C 274.582458 557.703918 275.115112 556.076355 275.835999 554.027344 C 275.961487 553.670837 276.065308 553.37738 276.301514 552.71106 C 278.030701 547.832642 278.850403 545.280151 279.503601 542.251221 C 285.088501 527.754883 289.788513 515.394348 299.471252 489.814758 C 301.466614 484.543488 301.750122 483.794434 302.583618 481.593292 C 306.642761 470.873383 309.555969 463.196869 312.457275 455.584412 C 313.273376 453.440613 313.828064 451.670502 314.845947 448.162933 C 315.199402 446.944824 315.255615 446.75177 315.404602 446.247559 C 316.263672 443.339935 316.908447 441.48291 317.672424 439.818542 C 318.665588 437.653107 319.909729 435.426025 322.204712 431.604095 C 322.37616 431.318542 322.506836 431.101288 322.812988 430.592804 C 325.458923 426.198151 326.554871 424.310272 327.849365 421.785797 C 328.703186 420.117798 329.593811 418.230713 330.715637 415.748047 C 331.272217 414.516357 333.236145 410.104065 333.581116 409.33609 C 335.27948 405.555511 336.523376 402.93924 337.696838 400.74353 C 338.522705 399.198273 339.255859 397.980835 339.87207 397.120117 C 339.843689 397.159821 339.852905 397.150269 339.899475 397.101898 L 339.93927 397.060669 C 340.345703 396.642029 341.022461 396.063171 342.189392 395.139557 L 342.190857 395.138397 C 342.24231 395.098114 343.626587 394.008759 344.040222 393.676941 C 344.852905 393.025055 345.509949 392.471924 346.12915 391.90387 C 347.215454 390.906769 348.031921 389.968719 349.025635 388.689972 C 349.151978 388.527405 349.294006 388.342896 349.514099 388.056702 C 349.581116 387.969818 349.640869 387.892792 349.693787 387.824921 C 351.142639 387.568024 352.592957 387.374969 355.532166 387.01825 C 357.204468 386.815277 358.089783 386.703003 359.129211 386.55603 C 364.095459 385.85379 368.061157 384.895935 372.258362 383.168213 C 376.629761 381.371979 379.547485 379.486786 385.252197 375.260406 L 385.498901 375.077637 C 390.085144 371.680145 392.210266 370.340424 394.656189 369.468048 C 394.753418 369.444214 394.876221 369.414978 395.01825 369.381958 C 395.401917 369.292816 395.879089 369.187103 396.373535 369.081665 C 397.091492 369.480286 397.988037 370.005127 399.850586 371.105927 L 400.009094 371.199585 C 404.296082 373.732147 406.328247 374.867249 408.353821 375.532257 C 429.072449 387.114441 447.171692 397.42157 482.613098 417.738068 L 491.343628 422.742706 C 494.639954 424.63205 497.416931 426.223267 500.075684 427.746002 C 508.498901 432.570251 515.554016 436.603241 522.315247 440.456909 C 523.349915 441.047272 524.499573 441.62677 525.987732 442.328857 C 526.769897 442.697876 529.496277 443.952423 529.581665 443.992065 C 531.439636 444.854736 532.790833 445.532501 533.669922 446.030365 C 533.93042 446.486359 534.222839 447.011841 534.520691 447.560059 C 534.962036 448.372467 535.38031 449.17041 535.688171 449.786346 C 535.854065 451.138062 535.890625 452.951996 535.836853 455.912048 C 535.829163 456.325317 535.829163 456.325317 535.820984 456.746704 C 535.734009 461.212982 535.753296 463.184509 536.030701 465.756409 C 539.662292 499.64798 566.377136 519.013306 603.125183 521.539429 C 618.370728 522.58429 638.132813 513.167847 649.320435 501.039124 C 670.734131 477.827454 675.194214 445.674683 659.665222 419.048065 C 657.40625 415.167694 656.059021 408.828674 656.115051 402.574432 C 656.184631 402.363861 656.281677 402.094025 656.404663 401.774994 C 656.795105 400.762512 657.348877 399.495148 658.205078 397.633148 C 658.335144 397.350433 658.335144 397.350433 658.466858 397.065216 C 660.993835 391.596069 661.264709 390.987183 661.88324 389.086395 C 662.816772 386.221619 663.433594 383.868103 664.612427 378.971252 C 664.819763 378.109558 664.914124 377.718323 665.024658 377.262909 C 666.204529 372.402832 667.021729 369.584869 668.102051 366.924561 C 670.788391 360.310486 674.864258 354.488129 683.952576 343.431946 C 684.295044 343.01532 685.468323 341.5896 685.549377 341.491028 C 686.189453 340.712891 686.680359 340.114838 687.157593 339.531281 C 688.381348 338.034912 689.405212 336.767303 690.37384 335.544708 C 692.775085 332.513977 694.763611 329.848175 696.537964 327.235992 C 697.715393 325.50238 698.285645 324.413544 699.555298 321.751312 C 700.481567 319.809174 700.797668 319.316315 701.475708 318.707214 C 701.60791 318.588623 703.750244 317.013184 705.722412 315.636383 C 706.718689 314.940887 707.637451 314.315948 708.364502 313.839661 C 708.630493 313.829285 708.97052 313.817505 709.394836 313.805756 C 712.755615 313.712585 714.424927 313.584259 716.825684 313.04425 C 717.262512 312.946014 717.695557 312.836456 718.12561 312.714661 C 733.240845 308.421906 754.290161 290.040527 760.597168 275.647644 C 777.589966 236.841064 750.304199 198.153442 708.161072 194.860352 C 702.140991 194.389404 698.491211 194.968079 693.095886 196.657959 L 692.881409 196.72522 C 690.734924 197.397705 689.872681 197.607971 688.568237 197.735291 C 687.651855 197.825623 687.119019 197.816528 685.974976 197.72113 C 684.892334 197.630859 684.716187 197.617493 684.138733 197.594177 C 680.187378 197.434814 676.706421 198.338562 672.029114 200.739685 C 650.40741 211.831665 635.924561 248.784607 644.195923 271.513672 C 646.341064 277.397217 649.38031 281.699646 654.570435 287.396729 C 654.636292 287.469055 657.15625 290.20697 657.801086 290.929871 C 660.235535 293.65918 661.330566 295.318115 661.731262 296.733398 C 661.8302 297.083923 661.911072 297.446777 661.972351 297.81543 C 662.687439 302.118683 661.03418 307.060547 655.963867 316.610413 C 655.696777 317.113525 654.75885 318.872314 654.743835 318.900482 C 654.246155 319.835205 653.870483 320.546204 653.507507 321.242859 C 652.55304 323.074829 651.787292 324.618988 651.105042 326.114471 C 649.405396 329.83429 648.249023 332.821075 645.857971 339.381134 L 645.838379 339.434845 C 643.594543 345.591095 642.562988 348.253876 641.135986 351.366089 C 637.794495 358.657471 631.232727 369.230042 623.271362 380.767517 C 622.915344 381.284088 621.349609 383.427795 620.064697 385.142822 C 619.756653 385.553955 619.465393 385.93988 619.195923 386.294067 C 618.781677 386.383759 618.344116 386.476044 617.898376 386.567596 C 616.82428 386.788208 615.782043 386.988251 614.980835 387.127502 C 614.779236 387.162537 614.59906 387.192657 614.445496 387.217133 C 613.898499 387.159698 613.180237 387.001923 612.222046 386.712891 C 611.451111 386.480347 610.848022 386.274078 609.103699 385.656677 C 604.190063 383.91748 601.599426 383.203491 597.925293 382.974396 C 589.962708 382.47229 581.588989 383.625977 575.69696 387.046936 C 574.617188 387.671051 573.744568 388.392059 572.939575 389.215393 C 572.759399 389.399658 572.606628 389.562531 572.455505 389.730988 C 571.824829 389.975616 571.016052 390.246643 569.493774 390.747162 C 568.434692 391.095398 567.676636 391.361786 566.850098 391.690948 C 563.115479 393.178253 559.93042 395.301666 556.476868 398.765991 C 555.055603 400.187866 553.80188 401.894562 551.958191 404.665466 C 551.807495 404.891937 551.651611 405.127533 551.483826 405.382263 C 551.226196 405.773346 550.387085 407.054596 550.269226 407.233917 C 549.937561 407.738525 549.676453 408.131744 549.451355 408.46463 C 549.019836 408.632416 548.539734 408.810181 548.04657 408.984009 C 547.70282 409.105164 547.364624 409.220184 547.043762 409.325409 C 546.895386 409.239746 546.736389 409.145782 546.566895 409.043427 C 546.203796 408.824127 545.805847 408.57486 545.30481 408.254028 C 545.078735 408.109222 544.263855 407.583527 544.126404 407.49472 L 544.106628 407.481995 C 543.600769 407.156128 543.2229 406.915558 542.845825 406.68103 C 541.691223 405.96286 540.73645 405.422028 539.738281 404.960449 C 534.708679 402.633881 530.23761 400.965454 521.203125 397.860931 C 519.933533 397.424866 519.299316 397.20694 518.673584 396.991333 C 509.384888 393.790833 504.334595 391.812439 499.493713 389.28183 C 488.538635 383.557404 479.780273 377.99234 462.265076 366.072754 C 459.195129 363.982422 456.607239 362.567566 451.134033 359.804016 L 450.605896 359.537323 C 446.528137 357.477783 444.56604 356.418213 442.56842 355.133423 C 441.432983 354.401306 440.371033 353.58374 438.003662 351.655334 L 437.500488 351.245544 C 434.766541 349.021332 433.154602 347.796936 431.162903 346.546265 C 429.13501 345.273712 427.067566 344.244141 424.400696 343.089478 C 423.938782 342.889496 423.472412 342.691284 422.877686 342.441193 C 422.779297 342.399811 421.762817 341.973419 421.476135 341.852509 C 419.715698 341.109802 418.69751 340.642853 417.867371 340.187103 C 417.472961 339.971771 415.209595 338.501892 413.270325 337.167328 C 412.425598 336.585999 411.667358 336.049622 411.0578 335.602203 C 410.376282 333.577637 410.344604 330.938446 410.763123 325.373413 C 410.894958 323.619965 410.95166 322.806854 411.007141 321.767548 C 411.150757 319.076019 411.149109 316.782135 410.946533 314.47879 C 408.730469 289.179932 381.875305 264.414856 356.200745 261.472046 C 344.585571 260.144775 322.299072 261.151978 313.894897 264.329041 C 313.005554 264.665466 312.177063 265.00531 311.391357 265.356567 C 309.172363 266.348511 307.331848 267.40979 305.414368 268.75824 C 304.776428 269.206909 304.153381 269.668701 303.357544 270.276184 C 303.104065 270.469604 301.788513 271.481445 301.394897 271.781372 C 300.972656 272.101807 300.477112 272.458374 299.75238 272.965454 C 299.540833 273.113403 298.761719 273.655884 298.610352 273.761719 C 295.518921 275.921021 293.71228 277.348328 291.832092 279.369019 C 278.799194 293.380737 271.612061 330.763489 278.240417 348.837158 C 281.868408 358.748871 294.795532 374.015839 304.004822 379.565155 C 304.394836 379.800201 304.779236 380.01593 305.163391 380.216766 C 305.197876 380.803741 305.1026 381.159882 304.891968 381.675385 C 304.651184 382.264771 302.700989 386.104401 302.104675 387.406036 C 301.192444 389.398956 300.12738 391.618683 298.662048 394.599792 C 298.160156 395.62088 295.445618 401.107483 294.658264 402.712738 C 293.619019 404.831696 292.727966 406.674194 291.890991 408.441956 C 287.855896 416.964447 285.15918 423.600952 283.549316 429.531036 C 277.572021 451.506836 272.484802 467.334473 266.501282 481.144348 C 265.242004 484.054443 263.870605 486.405121 260.702209 491.318634 L 260.277344 491.97757 C 257.815552 495.796356 256.529846 497.900391 255.14563 500.522522 C 252.761108 505.051117 251.095886 508.784454 247.697083 516.876831 L 247.395447 517.594971 C 244.279724 525.011353 242.658569 528.618896 240.569153 532.529236 C 239.440491 534.637817 238.270935 536.615356 236.489502 539.447327 C 234.531494 539.074707 233.453735 538.913879 232.247131 538.845825 C 195.099335 536.799194 172.302704 549.470398 162.548248 582.72644 Z M 172.143982 585.541016 C 164.798004 610.582031 169.548981 631.882935 186.088989 651.307983 L 186.079987 651.353027 C 200.579987 668.383972 237.86499 667.200928 255.396973 655.513062 C 281.575989 638.062988 280.473999 601.953003 271.280029 575.264038 C 269.733032 570.784912 267.139038 565.159912 263.416016 562.24707 C 264.198975 554.490967 268.330933 547.164063 269.878967 539.416992 C 281.084045 510.343994 292.007996 481.159973 303.112976 452.02301 C 305.116028 446.760956 306.143982 440.963013 308.584045 435.646973 C 311.368958 429.574982 315.837952 423.294006 318.950989 417.222992 C 322.674011 409.950012 327.335999 397.452026 331.740967 391.299011 C 333.407043 388.967987 337.165955 386.55603 339.369019 384.534973 C 341.927002 382.186981 342.77301 378.973022 346.906006 378.171997 C 354.434021 376.716003 360.933044 377.015991 368.451965 373.92099 C 377.045044 370.390015 382.842957 362.934021 391.664001 359.921021 C 392.291992 359.703003 396.89801 358.719971 397.44397 358.719971 C 398.526062 358.706146 401.557922 360.498535 404.673889 362.340607 C 407.639709 364.093933 410.681702 365.892303 412.190979 366.221008 C 450.703979 387.739014 488.953979 409.932007 527.267029 431.768982 C 530.872009 433.825989 537.835022 436.366028 540.974976 438.905029 C 541.512024 439.332977 545.198914 446.151001 545.353943 446.93399 C 545.954712 449.973663 545.886353 453.485168 545.818787 456.954163 C 545.766602 459.635315 545.714905 462.291077 545.973022 464.684021 C 549.304016 495.77002 575.210999 509.596954 603.810974 511.562988 C 616.563965 512.437012 633.421997 503.526001 641.969971 494.258972 C 660.083984 474.624023 664.554016 447.280029 651.026978 424.085999 C 647.412964 417.877991 645.938965 409.15802 646.130005 401.638977 C 646.211975 398.63501 651.144958 389.768982 652.374023 385.992004 C 654.776978 378.61795 655.861023 370.48999 658.836914 363.161987 C 664.999939 347.987976 679.127014 335.070984 688.26593 321.617004 C 690.750977 317.958008 691.11499 314.571991 694.79303 311.268005 C 695.940002 310.239014 704.094971 304.44101 705.088013 304.186035 C 707.718018 303.511963 711.60498 304.167969 715.40094 303.093018 C 727.643982 299.615967 746.332031 283.286011 751.437988 271.634033 C 766.093994 238.164001 741.398926 207.488037 707.382019 204.829956 C 701.842346 204.396606 698.917419 205.313171 695.953125 206.242126 C 694.061401 206.834961 692.153625 207.4328 689.539978 207.687988 C 687.52417 207.886597 686.165649 207.772461 684.982727 207.673035 C 682.693359 207.480652 681.061584 207.343506 676.596008 209.635925 C 659.401001 218.457031 647.067017 250.161011 653.593018 268.093994 C 657.734924 279.453979 668.731934 284.752014 671.353027 294.009033 C 674.121094 303.818634 668.853577 313.694763 664.032471 322.733856 C 662.653259 325.319794 661.310547 327.837219 660.203003 330.264984 C 656.442993 338.494019 653.994995 347.314026 650.226013 355.533997 C 645.920959 364.927979 637.481934 377.781006 631.502014 386.447021 C 630.736938 387.557007 625.330017 394.939026 624.838013 395.176025 C 624.018982 395.577026 615.872009 397.251984 614.770996 397.242004 C 608.963989 397.187988 603.429016 393.336975 597.302979 392.955017 C 592.26001 392.637024 585.059998 393.174011 580.718018 395.694977 C 579.789001 396.231995 579.088013 397.688995 578.187012 398.125977 C 572.205994 401.001984 569.320923 400.046021 563.559021 405.825989 C 561.274963 408.111023 557.223999 415.383972 555.859009 416.485992 C 554.856995 417.296021 547.965942 419.744019 546.637024 419.71698 C 543.460022 419.643951 538.453918 415.383972 535.541016 414.036957 C 522.888 408.18399 507.450012 404.724976 494.860962 398.143982 C 481.325012 391.070953 469.119019 382.833008 456.638977 374.339996 C 450.649963 370.262024 443.357971 367.531006 437.158997 363.544006 C 433.290955 361.049988 429.686035 357.427002 425.844971 355.015015 C 421.73999 352.439026 416.851013 351.036987 413.054993 348.953003 C 411.570984 348.143005 403.388 342.698975 402.877991 341.762024 C 399.915771 336.265594 400.351013 330.477509 400.789917 324.641937 C 401.022583 321.547485 401.256348 318.439728 400.984985 315.355011 C 399.127991 294.155029 375.232971 273.718994 355.062012 271.406982 C 346.695984 270.450989 324.895996 270.860962 317.430969 273.682983 C 312.78894 275.438965 311.086975 276.968994 307.454956 279.735962 C 304.733032 281.802002 301.482971 283.677002 299.153015 286.18103 C 288.621033 297.504028 282.330994 330.947968 287.628967 345.393982 C 290.514038 353.276001 302.02002 366.69397 309.166016 371 C 312.442993 372.974945 313.736023 371.655029 314.755981 376.825012 C 315.838135 382.331024 314.582153 384.800751 312.682251 388.536499 C 312.217163 389.45108 311.713501 390.441528 311.196045 391.570984 C 305.770996 403.422943 296.531006 419.880981 293.200012 432.15097 C 288.476013 449.518982 282.859009 468.544006 275.677002 485.119995 C 272.454956 492.565979 267.612 498.328003 263.989014 505.190979 C 258.572998 515.47699 254.904968 526.918945 249.388977 537.242004 C 247.104004 541.510986 244.481995 545.525024 241.879028 549.593994 C 241.559998 550.049011 241.197021 550.231079 240.649963 550.276978 C 240.006958 550.328918 238.177673 549.968323 236.274597 549.593262 C 234.513794 549.246216 232.68988 548.886658 231.684021 548.829956 C 201.772003 547.182007 181.083008 555.065063 172.143982 585.541016 Z"/>
    </g>
    <path id="path3" fill="#141413" stroke="none" d="M 35.014282 300.784027 C 36.689209 296.313965 35.22348 295.257996 39.874969 292.992004 C 50.452301 287.839966 74.37439 288.339966 86.362976 289.377991 C 112.596985 291.653992 126.141998 301.111023 148.47998 312.617004 C 174.713989 326.13501 222.000977 356.127991 250.95697 353.598053 C 254.661987 353.27002 265.639954 349.810974 267.687988 346.616028 C 269.244995 344.184998 269.572021 335.79303 267.632996 333.653992 C 267.123962 333.08902 255.471985 327.937042 253.851929 327.345001 C 237.859009 321.528992 224.914978 316.932007 210.340973 307.82901 C 183.988983 291.370972 173.156006 268.487 195.085022 241.752991 C 202.812988 232.330994 226.726013 221.026001 238.769043 220.389038 C 243.547974 220.134094 258.994995 222.919006 264.411011 223.993042 C 275.096985 226.114014 285.046997 229.127014 294.886963 233.705994 C 303.343994 237.638 310.260925 241.89801 319.745972 244.073975 C 325.717957 245.438965 337.122986 246.104004 341.94696 241.724976 C 344.742004 239.195007 341.829041 236.536987 339.963013 234.27002 C 333.164001 225.995972 327.411011 226.879028 318.262939 223.71106 C 287.713928 213.125 266.186035 200.700012 233.189026 195.146973 C 227.700012 194.228027 219.106995 194.828003 215.730011 189.285095 C 213.600006 185.797974 213.554993 183.031006 215.048004 179.33606 C 216.97699 174.539001 218.779022 173.145996 223.822021 172.72699 C 257.575012 169.932983 303.178955 187.837036 332.108032 204.423035 C 339.343994 208.572998 344.69696 215.955994 353.544006 211.631958 C 364.140015 206.453064 356.02002 195.073975 351.040955 188.466003 C 338.161011 171.362 321.804016 173.546021 303.35199 167.183044 C 298.109009 165.372009 292.729004 162.495972 287.513 160.692993 C 269.343994 154.403015 249.42804 150.225037 231.404968 143.353088 C 228.874023 142.388 225.050964 140.985962 223.421021 138.947021 C 222.156006 137.363098 219.298004 130.872986 219.816986 129.071045 C 220.536011 126.585999 221.382019 125.265991 222.510986 123.317993 C 224.140015 120.514038 224.195007 118.539001 227.91803 117.78302 C 234.553955 116.436035 241.653992 120.822998 248.016968 122.752991 C 273.332031 130.453979 293.211975 140.176025 317.234009 149.80603 C 322.767944 152.026978 343.731995 158.563049 348.856995 158.363037 C 352.197998 158.235962 358.195984 157.462036 357.448975 153.265015 C 354.901001 138.809998 325.381042 125.002014 312.664001 120.631958 C 294.413025 114.360962 275.752991 108.7901 256.937988 104.401978 C 250.119995 102.80896 235.691956 101.761963 230.559021 97.539001 C 228.59198 95.919006 226.843994 91.140015 227.062012 88.682068 C 227.243958 86.707031 230.621948 80.161987 232.250977 78.942078 C 235.973999 76.166016 249.018005 80.280029 253.56897 81.473022 C 276.790039 87.552979 299.037964 96.245972 322.431946 101.435059 C 327.484009 102.553955 333.27301 105.467041 338.315979 104.60199 C 340.072937 104.302002 350.23999 100.406006 350.513 98.994995 C 350.740967 97.830017 345.005981 87.963074 343.876953 86.43396 C 336.312988 76.14801 318.372009 69.474976 306.575012 65.178955 C 266.021973 50.395996 219.308014 49.002991 176.625 47.255981 C 166.365997 46.837036 156.033997 46.382019 145.694 45.971985 C 139.923004 45.745056 130.921021 46.417969 125.685974 45.106995 C 121.700012 44.106018 120.169006 40.447021 117.829987 37.533997 C 118.730988 32.563965 117.630005 25.218018 123.436981 23.242981 C 133.141022 19.929016 155.424988 20.429993 166.165985 20.96698 C 195.658966 22.432983 226.780029 26.52002 255.345032 34.047974 C 271.60199 38.325989 287.085999 45.070984 302.734009 51.179016 C 326.072998 60.281982 355.765991 67.900024 367.40802 92.696045 C 373.524963 105.721985 359.760986 119.575989 347.636963 122.389038 C 357.721985 129.106995 369.265015 137.891052 373.187988 149.93396 C 376.983948 161.604004 369.783936 172.864014 358.550964 176.47699 C 365.796997 185.926025 378.368042 198.523987 373.670959 211.458984 C 371.312988 217.940002 365.979004 224.875977 359.55304 227.598022 C 363.047974 232.886963 365.251038 237.802002 363.65802 244.129028 C 357.595032 268.304993 333.246033 271.481995 313.202026 262.032959 C 310.151978 260.594971 306.537964 257.509033 303.970947 256.380981 C 281.896973 246.650024 246.469971 239.157959 223.203003 246.549988 C 215.302002 249.062012 207.336975 253.44104 203.313995 260.94104 C 200.564972 266.057007 201.156006 271.255005 203.468018 276.489014 C 208.465973 287.776001 232.897949 299.527008 244.294006 304.143005 C 255.089966 308.511993 276.171997 313.463989 282.71698 323.786041 C 288.851929 333.471008 288.405029 345.123016 283.044006 355.062988 C 268.005981 382.94397 226.462036 370.145996 203.922974 360.89801 C 172.700989 348.080994 141.024017 334.527008 110.384003 321.838013 C 109.473969 321.465027 108.5 321.155029 107.616974 320.728027 C 92.688995 313.399994 77.359985 312.071014 60.574707 311.743042 C 55.677399 311.652008 42.041321 312.626007 38.591309 309.613007 C 38.42749 309.47699 36.106476 306.536987 36.042816 306.335999 C 35.53299 304.880005 36.589203 303.076996 35.005402 302.286011 L 35.005402 300.79303 L 35.014282 300.784027 Z"/>
    <path id="path4" fill="#141413" stroke="none" d="M 471.290955 522.61499 C 473.283997 507.268036 482.869995 499.986023 497.815979 499.513 C 503.160034 499.340027 505.198975 500.651001 510.02301 502.297974 C 511.606995 498.111023 512.499023 493.33197 514.392029 489.289978 C 521.611023 473.89801 541.163025 472.468994 551.393982 485.686005 C 563.627991 501.488007 570.866028 520.713013 580.76001 537.708008 C 589.399048 552.536011 599.638 566.580994 607.603088 581.828003 C 612.264038 590.757996 612.500977 590.875977 618.671997 598.549988 C 619.637085 599.752014 621.830994 604.512085 622.796021 605.094971 C 624.780029 606.304932 635.857971 606.815002 638.552002 606.505981 C 646.198975 605.622986 649.540039 604.302979 652.262024 596.893066 C 658.124023 580.917969 647.445984 564.315002 642.476013 549.440918 C 636.041016 530.180054 631.260986 502.344025 651.751038 489.700012 C 677.030029 474.107025 694.125 501.633972 705.111023 520.057007 C 715.616089 537.671021 718.702026 553.091003 724.627991 571.997009 C 729.370056 587.13501 735.460083 602.601074 740.411987 617.747009 C 750.515991 648.660034 759.518066 675.914063 762.085083 708.719971 C 762.75 717.231018 761.256958 721.909973 760.802002 729.638 C 760.537964 733.997986 762.185913 738.212036 759.14502 742.482056 C 758.51709 743.35498 753.16394 747.625 751.999023 747.643005 C 750.041992 747.670044 744.18103 745.921997 742.823975 744.366028 C 734.75 735.080994 738.199951 730.184082 737.289917 720.125 C 735.861084 704.268005 732.573975 688.638916 729.888977 672.991943 C 727.713013 660.312012 723.708008 647.914001 721.469055 635.216003 C 720.231018 628.215942 720.057983 621.060974 718.79303 614.078979 C 712.749023 580.68103 694.406982 542.130981 677.93103 512.52002 C 675.39209 507.960022 668.810059 500.296021 663.221069 501.169006 C 649.22998 503.354004 656.047974 526.575012 658.732971 535.195007 C 666.278992 559.463013 681.698975 575.911011 673.252014 603.492981 C 669.101013 617.05603 651.843018 627.942993 637.778992 626.113037 C 633.546082 625.567017 618.198975 621.588989 614.958008 619.658997 C 611.718079 617.729004 597.062988 603.619995 594.887024 600.533997 C 591.518982 595.763977 590.198975 590.156982 587.52301 585.078003 C 579.294067 569.46698 568.307007 554.383972 560.707031 538.453979 C 557.712036 532.172974 555.60907 525.419006 552.786987 519.073975 C 550.129028 513.103027 545.859985 501.843018 542.665039 496.91803 C 540.762024 493.995972 534.927002 491.703003 531.751038 493.122986 C 528.573975 494.54303 525.161072 509.562042 525.04303 513.211975 C 524.823975 519.812012 527.007996 522.005005 530.15802 527.302979 C 542.656006 548.348999 553.015076 572.953003 563.255005 595.437012 C 565.885986 601.208008 573.705994 613.788025 573.478027 619.905029 C 573.460022 620.414978 570.947021 628.052002 570.59198 628.325012 C 570.336975 628.515991 569.345032 628.078979 568.736023 628.434021 C 567.752014 629.006958 567.088013 630.08197 566.278015 630.491089 C 564.366089 631.465027 560.088013 633.377014 558.15802 632.69397 C 549.79303 629.736084 548.382019 620.687988 545.005005 613.679016 C 532.971008 588.718994 520.573059 562.402954 511.151062 536.379028 C 509.049011 530.580017 508.739014 526.883972 504.778992 521.414001 C 496.231995 509.598053 482.833008 515.723999 482.213989 529.051025 C 481.759033 538.827026 485.035034 540.419983 489.578003 547.529053 C 503.349976 569.111938 511.187988 593.278992 521.846985 616.481934 C 523.89502 620.932983 528.192078 627.205017 529.612061 631.538025 C 529.921021 632.494019 531.377014 640.148926 531.332031 640.776978 C 531.25 641.851013 530.176025 641.659973 529.876038 642.352051 C 529.447998 643.343994 529.876038 644.454956 528.838013 645.656006 C 528.656006 645.866028 524.778076 648.815063 524.541016 648.960999 C 523.986023 649.30603 518.952026 649.916016 517.786987 650.736023 C 512.781006 650.671997 508.265991 641.750977 506.445007 637.836914 C 500.828979 625.757996 495.448975 611.030029 490.770996 598.432007 C 486.619995 587.263 478.782043 556.859985 472.802063 549.414063 C 470.353027 546.364014 462.962036 540.219971 459.14801 542.723022 C 453.658997 546.328003 452.749023 550.206055 452.958008 556.39502 C 453.330994 567.446045 457.208984 571.760986 461.460022 581.091064 C 467.031006 593.315979 472.855957 603.666016 479.092041 615.562988 C 483.73407 624.411011 498.262024 650.307983 498.898987 658.882996 C 499.335999 664.72699 496.187073 668.577026 491.252991 671.161987 C 490.170044 671.727051 489.205017 671.161987 489.158997 671.252991 C 488.967957 671.671997 489.333008 673.018982 489.050964 673.875 C 488.413025 675.804016 485.408997 676.158997 483.652039 675.922974 C 472.820068 674.502991 454.233032 651.801025 446.496033 643.690002 C 442.044006 639.02002 436.800964 635.11499 432.622986 630.153992 C 426.61499 623.026978 416.52002 608.016968 406.498047 606.788086 C 398.615051 605.822998 398.187012 614.097046 399.94397 619.786011 C 410.029968 652.346985 451.984009 682.559021 474.268005 708.218994 C 487.06604 722.965027 498.734985 738.912964 510.277039 754.578979 C 512.799011 757.992981 518.588013 762.753052 518.432983 767.731934 C 518.414978 768.287964 517.695984 768.833984 517.677979 769.25293 C 517.622986 770.508972 518.232971 771.427979 517.713989 773.012024 C 517.276978 774.332031 516.138977 774.405029 515.439087 775.197021 C 513.908997 776.934998 512.416016 778.982971 509.94104 780.112061 C 507.465027 781.241028 506.955017 781.021973 504.543091 780.15802 C 496.442017 777.254028 478.591003 752.476013 472.036987 744.675049 C 453.541016 722.664978 434.469971 700.609009 417.475037 677.161011 C 405.696045 660.911987 385.289001 625.776001 389.458008 605.549927 C 394.35498 581.81897 421.007996 597.402954 432.814026 605.75 C 438.88501 610.046997 442.390076 615.253052 447.695984 620.140991 C 452.48407 624.55603 458.145996 627.932983 462.342957 633.031006 C 459.949036 625.69397 457.564026 618.265991 454.786987 611.06604 C 451.765076 603.247009 448.834961 598.632019 446.695984 589.883972 C 442.334961 572.025024 435.026001 542.140991 453.177002 529.825012 C 458.28302 526.366028 466.084045 526.784058 471.282043 529.825012 C 471.491028 527.539978 470.98999 524.844971 471.282043 522.633057 L 471.290955 522.61499 Z"/>
</svg>
