<?xml version="1.0" encoding="UTF-8"?>
<svg width="1000" height="1000" viewBox="0 0 1000 1000" xmlns="http://www.w3.org/2000/svg">
    <path id="Path" fill="#d97757" stroke="none" d="M 306.842987 165.90802 C 355.919006 167.549988 404.950012 171.292969 454.100006 169.926025 C 481.11499 169.174011 507.029999 165.468018 534.072021 167.411987 C 581.755005 170.833984 629.335999 171.38501 677.065002 169.916992 C 687.916016 169.587036 697.356018 169.999023 708.033997 170.43103 C 713.059998 170.632019 718.609985 170.61499 723.599976 169.945007 L 724.572998 170.393982 C 724.737976 183.015991 725.151001 195.573975 725.810974 208.160034 C 725.893982 209.802002 726.710022 211.544983 726.783997 213.187012 C 729.205017 262.786987 727.453003 312.523987 725.773987 362.170044 C 724.674011 394.625 726.692017 427.712036 725.810974 460.213013 C 724.609009 504.665985 723.820984 549.460022 722.307007 593.710999 C 719.958984 662.455017 720.325989 730.603027 718.775024 799.200012 L 717.784973 843.460999 C 703.025024 843.258972 688.328979 843.607971 673.523987 843.489014 C 665.377991 843.424988 656.213989 842.469971 648.049988 842.479004 C 645.508972 842.479004 638.776001 842.625977 636.583008 843.010986 C 633.804016 843.497986 633.877014 846.754028 633.776001 849.203003 C 632.812988 873.109009 631.638977 897.281006 631.400024 921.231995 C 631.35498 925.763 632.978027 933.05603 632.573975 937.138 C 632.427979 938.606018 632.263 941.174011 630.52002 941.504028 C 625.997009 941.624023 621.429016 940.815979 616.934021 940.705994 C 563.02301 939.458984 508.304993 939.164978 454.053986 940.026978 C 438.276001 940.275024 422.296997 940.760986 406.574005 940.752014 C 336.683014 940.734009 266.627014 940.09198 196.626007 939.898987 C 173.391006 939.835022 150.705002 941.679016 127.615997 942 C 126.112 942.018005 124.515999 940.778992 122.846001 941.981018 C 123.25 938.642029 122.157997 941.29303 120.130997 939.440002 C 115.306 935.028015 117.856003 925.901001 117.864998 920.25 C 117.974998 878.630981 119.378998 838.030029 117.819 796.237 C 116.864998 770.487976 119.809998 744.830017 120.553001 719.210022 C 121.625999 682.177002 119.195 644.768982 119.625999 607.700012 C 120.039001 572.062012 120.515999 536.81897 120.369003 501.21701 C 120.139999 446.783997 119.543999 392.495972 118.864998 338.153992 C 118.608002 317.285034 118.278 296.158997 117.864998 275.151978 C 117.801003 271.676025 115.471001 265.914001 120.709 264.997009 C 121.763 264.813965 122.698997 265.483032 123.542999 265.372986 C 143.587006 262.620972 165.326996 263.539001 185.608994 262.942993 C 193.792007 262.704956 202.332001 261.813965 210.266998 262.346008 C 214.789001 244.862 211.505005 226.075989 213.550995 208.169983 L 212.559998 169.403015 C 213.238998 168.440002 222.567993 169.054016 224.585999 168.90802 C 235.255005 168.155029 244.602005 166.898987 255.509003 166.614014 C 263.076996 166.412964 270.78299 166.046021 278.34201 165.916992 C 287.643005 165.752014 297.567993 165.60498 306.842987 165.916992 L 306.842987 165.90802 Z"/>
    <path id="path1" fill="#e0e0e0" stroke="none" d="M 681.651978 56.838074 C 686.953979 59.571716 697.356018 65.993408 701.309998 70.424072 C 712.895996 83.376709 720.638 97.916199 730.114014 112.125977 C 742.047974 130.031982 755.065002 147.276978 766.999023 164.990967 C 788.905029 197.500977 806.802002 232.981995 826.314026 267.437012 C 835.028015 282.829956 840.780029 295.140991 847.659973 311.596985 C 857.658997 335.494019 872.179993 362.710999 878.216003 387.552002 C 878.857971 390.192993 879.242981 396.514038 877.840027 398.833984 C 877.5 399.403015 876.554993 399.229004 876.059998 399.669006 C 875.619995 400.054993 875.5 400.807007 875.179016 401.036011 C 874.179993 401.723999 869.812988 403.778992 868.72998 403.585999 C 860.35498 402.099976 854.695984 381.424011 851.687012 374.589966 C 841.752014 352.070007 826.065979 330.155029 813.64502 308.625 C 801.921997 288.31604 793.106018 270.822998 783.437988 249.330017 C 765.888977 210.307007 747.515991 170.926025 726.747009 133.507996 C 716.41803 114.885986 707.877991 98.686707 693.091003 83.156372 C 680.927002 70.378113 645.013977 53.242798 631.83197 72.405701 C 624.135986 83.587769 631.979004 98.383484 635.465027 109.281006 C 638.922974 120.096985 642.179993 135.094971 647.242981 145.010986 C 648.692993 147.846008 651.994995 151.046997 653.747009 154.000977 C 658.16803 161.43103 661.085999 170.091003 665.414978 177.338013 C 671.19397 186.997009 677.330994 195.528015 683.138 205.619019 C 689.338989 216.406982 704.851013 240.156006 705.36499 251.953003 C 705.382996 252.447998 705.244995 256.484009 705.117004 256.686035 C 704.685974 257.393005 703.309998 257.346008 702.952026 257.804993 C 702.713989 258.108032 702.098999 260.906006 701.66803 261.768005 C 699.924988 265.254028 700.007019 263.390991 698.026001 264.078979 C 695.723022 264.877991 687.338989 267.60199 685.330017 267.35498 C 685.192993 267.335999 683.046021 266.52002 682.843994 266.401001 C 669.817993 258.666992 654.325012 202.783997 647.215027 186.510986 C 646.921997 185.832031 645.968018 185.731995 645.656006 185.044006 C 637.400024 166.641968 629.510986 145.122009 617.026978 129.214966 C 605.945007 115.088013 588.278015 93.604797 573.289001 83.95459 C 567.921997 80.496277 560.03302 79.59729 553.776978 80.477905 C 548.034973 81.294312 544.916016 84.496094 544.301025 90.403625 C 543.356018 99.531006 548.36499 121.565002 551.804993 130.44397 C 556.244995 141.882996 570.471985 157.468018 578.315002 167.787964 C 592.909973 186.979004 609.807007 208.96698 621.366028 230.285034 C 626.346985 239.468018 636.630005 259.960999 638.684021 270.078979 C 638.968994 271.481995 639.317017 276.270996 639.125 277.473022 C 639.015015 278.143005 637.776001 278.629028 637.455017 279.573975 C 637.015015 280.875977 636.749023 283.848022 636.070007 284.718994 C 635.565002 285.35199 634.226013 284.820007 633.21698 285.287964 C 632.070984 285.820007 631.281982 287.131958 629.695007 287.811035 C 628.713013 288.233032 622.934021 290.196045 622.164001 290.169006 C 618.228027 290.040039 611.586975 281.948975 609.724976 278.554993 C 595.570007 252.768982 591.296021 221.434021 576.747009 195.518982 C 572.564026 188.070984 567.270996 182.768982 562.922974 175.833984 C 559.987976 171.155029 557.978027 165.063965 555.033997 160.724976 C 552.107971 156.412964 546.741028 152.075012 543.328979 147.929016 C 537.127991 140.39801 532.862 133.672974 525.770996 126.481018 C 515.708008 116.280029 503.69101 105.153992 488.143005 106.740967 C 482.959991 107.263977 471.098999 113.804016 468.806 118.408997 C 457.632996 140.929016 474.529999 160.807983 487.243988 178.511963 C 499.958008 196.21698 513.231018 213.333984 526.10199 230.653015 C 540.062988 249.438965 557.04303 277.958984 559.161987 301.579956 C 559.364014 303.828003 556.73999 310.671021 555.327026 312.44104 C 553.758972 314.39502 548.14502 317.697021 545.695007 317.165039 C 542.594971 314.945007 539.723999 312.432007 536.788025 309.973022 C 530.265991 304.505981 530.724976 301.964966 526.312012 295.562012 C 520.625 287.325012 510.20401 275.72998 503.324005 267.932007 C 495.847992 259.455994 476.391998 249.117981 465.035004 247.218994 C 447.561005 244.302002 408.226013 250.815979 392.475006 259.080994 C 374.808014 268.35498 356.966003 286.5 343.985992 301.351013 C 338.940002 307.120972 333.325989 313.990967 332.03299 321.697021 C 330.730011 329.421021 330.390991 345.473999 334.54599 352.226013 C 337.528015 357.059998 343.802002 357.178955 349.095001 356.710999 C 357.140015 356.005005 369.863007 342.208008 376.651001 336.796021 C 413.490997 307.432983 462.89801 301.460999 496.307007 339.437988 C 500.287994 343.968994 503.471008 348.997009 505.644989 354.629028 C 511.790985 355.105957 517.927979 354.719971 524.073975 355.197021 C 571.059998 358.838989 619.237 366.747009 664.434021 379.341003 C 705.429016 390.761963 747.835999 401.56897 786.666992 418.612 C 807.085999 427.575012 826.708008 437.93103 845.596008 449.69104 C 849.265015 451.974976 849.750977 453.598022 852.291992 456.488037 C 852.84198 457.112 853.989014 457.084961 854.557983 457.72699 C 856.098999 459.459961 855.658997 464.176025 856.796021 465.863037 C 857.015991 466.19397 861.620972 469.203003 862.603027 470.18396 C 879.921997 487.401978 890.591003 525.572021 879.416992 548.046021 C 873.151978 560.640991 860.75 570.502014 847.833984 575.465027 C 830.890991 581.968994 822.892029 581.538025 805.747009 576.052002 C 778.815002 567.439026 762.981995 542.046997 750.827026 518.213989 C 746.314026 524.745972 743.442993 531.140015 736.801025 535.927979 C 720.656006 547.56897 710.502014 542.862976 697.080994 530.690979 C 688.018005 522.461975 681.752991 512.729004 676.14801 502.143005 C 674.596985 499.21701 673.156982 496.235992 671.827026 493.200012 C 668.166992 494.822998 665.469971 498.290009 662.16803 500.281006 C 622.778015 524.075989 602.596985 467.302979 590.432983 440.35199 C 583.130981 424.179993 568.317017 399.889038 553.583984 389.697998 C 550.171997 387.339966 536.044983 378.920044 532.624023 377.653992 C 526.752991 375.47998 517.525024 377.221985 511.324005 375.415039 C 510.700012 379.303955 512.15802 383.148987 511.782013 387.386963 C 509.966003 407.375 498.131989 433.674011 477.950989 440.004028 C 460.403015 445.516968 440.615997 444.158997 423.727997 436.536011 C 414.554993 432.390015 406.07901 426.988037 398.372986 420.410034 C 393.631012 416.36499 389.466003 410.962036 384.595001 407.192017 C 382.053986 405.218994 377.467987 402.89801 374.587006 400.697021 C 369.761993 397.009033 364.708008 390.129028 358.048004 389.734985 C 357.039001 389.671021 348.526001 391.339966 347.645996 391.761963 C 342.049988 394.44104 336.463013 406.273987 336.298004 412.455994 C 335.783997 431.921997 348.609009 469.917969 363.102997 483.200012 C 367.881989 487.584961 378.632996 496.640015 383.880005 499.924011 C 389.127014 503.208008 399.895996 505.446014 406.316986 507.987 C 410.903992 509.803009 415.747986 512.88501 420.243011 514.564026 C 438.772003 521.481018 457.769989 519.903015 476.822998 522.976013 C 486.877014 524.598999 501.78299 526.947021 511.213013 530.103027 C 526.505005 535.221985 544.163025 549.127991 553.841003 562.466003 C 559.382019 570.107971 564.143005 580.656982 569.59198 588.729004 C 577.159973 599.947998 585.030029 606.140015 589.223022 620.093018 C 590.276978 623.61499 589.607971 623.513977 589.085022 626.47699 C 588.974976 627.109985 589.552979 628.028015 589.278015 628.880981 C 588.892029 630.054993 586.901978 630.109985 586.828003 630.237976 C 586.635986 630.567993 587.377991 631.494995 587.34198 631.945007 C 587.322998 632.237976 586.507019 632.137024 586.34198 632.596008 C 585.974976 633.642029 586.148987 635.687012 584.177002 636.411987 C 583.278015 636.742004 582.875 635.815979 582.30603 635.94397 C 581.213989 636.192017 581.002991 637.448975 580.461975 637.742004 C 579.122009 638.448975 570.260986 641.172974 569.179016 641.062988 C 568.994995 641.044983 566.362976 639.942993 566.059998 639.750977 C 555.382019 632.963013 554.244995 612.314026 550.666992 600.635986 C 548.244995 592.757019 542.658997 577.189026 536.210022 572.060974 C 533.320984 569.768005 527.872009 566.401978 524.588013 564.218994 C 508.671997 553.679016 483.730011 541.22998 464.531006 538.771973 C 449.789001 536.882019 439.341003 537.359009 424.342987 532.955994 C 414.371002 530.030029 407.143005 525.25 398.108002 521.690979 C 393.658997 519.939026 388.842987 519.10498 384.356995 517.434998 C 362.71701 509.398987 348.442993 488.447998 334.829987 470.963013 C 325.437012 458.901001 315.117004 448.507996 311.484985 432.802979 C 309.356995 423.593018 309.007996 412.382996 310.84201 403.192017 C 304.962006 406.338013 298.338989 408.255005 292.359009 410.952026 C 283.955994 414.75 270.756012 423.69397 261.31601 421.968994 C 257.197998 421.217041 255.417999 417.924011 257.343994 414.044006 C 259.363007 409.971008 268.747009 405.089966 272.315002 402.403015 C 283.084015 394.275024 293.514008 385.596985 305.493988 379.083984 C 310.84201 376.176025 316.622009 373.671997 322.346008 371.671997 C 314.428986 362.755981 310.567993 352.528015 311.32901 340.455994 C 312.309998 325.018005 319.209015 303.14801 327.64801 290.223022 C 345.562988 262.803955 371.221008 239.916992 404.226013 234.294006 C 440.708008 228.075012 467.713989 230.789978 500.949005 247.311035 C 504.855988 249.255981 508.269012 252.007996 512.34198 253.667969 C 512.452026 252.421021 512.047974 251.291992 511.598999 250.164001 C 507.177002 239.174011 500.636993 228.139038 495.160004 217.598999 C 493.352997 214.122009 492.132996 209.802002 490.069 206.187988 C 475.309998 180.301025 444.212006 167.292969 445.854004 132.911987 C 446.18399 125.903992 448.707001 118.281006 451.109985 111.666992 C 454.47699 102.401978 463.677002 98.677307 471.970001 94.631897 C 479.253998 91.072693 486.134003 89.990173 494.591003 90.65979 C 508.104004 91.733093 520.450989 98.815125 529.843994 108.153015 C 529.202026 97.769409 527.028015 88.118896 532.448975 78.50531 C 539.85199 65.369324 551.776978 64.241516 566.031982 65.718384 C 583.379028 67.50708 597.726013 84.55957 609.367004 95.402283 C 609.52301 95.539917 612.697021 97.805725 612.843994 97.658875 C 609.789001 88.393982 611.348022 78.083618 615.255981 69.32312 C 627.557007 41.720886 658.791992 45.060303 681.669983 56.8479 L 681.651978 56.838074 Z M 467.658997 338.859985 C 460.669006 333.208984 452.549988 333.466003 444.065002 333.667969 C 425.535004 334.108032 405.877014 341.070007 391.833008 353.436035 C 391.420013 353.802979 388.778015 356.188965 389.338013 356.692993 L 480.832001 353.692993 C 478.410004 351.390991 476.851013 348.317993 474.648987 345.877991 C 473.282013 344.364014 469.089996 340.033997 467.658997 338.869019 L 467.658997 338.859985 Z M 492.738007 376.286987 C 492.096008 375.882996 491.343994 375.737 490.583008 375.700012 C 472.988007 374.957031 453.147003 378.23999 435.497986 379.653015 C 421.105011 380.799988 406.125 381.221985 391.667999 382.735962 C 390.300995 382.881958 386.924988 383.203003 385.825012 383.442017 C 385.173004 383.588013 384.614014 383.578979 384.834015 384.432007 C 389.346985 388.138 394.566986 391.990967 398.768005 396 C 405.877014 402.778992 411.821014 411.731995 420.362 416.906006 C 446.001007 432.436035 473.088989 429.528015 488.803009 402.81604 C 494.123993 393.770996 495.802002 386.707031 492.738007 376.286987 Z M 670.708008 402.338989 C 645.757019 394.541992 622.228027 389.101013 596.460022 384.817993 C 587.929016 383.395996 579.369995 382.075012 570.838989 380.698975 C 570.58197 381.68103 571.252014 381.661987 571.682983 382.10199 C 581.323975 391.907959 586.34198 396.973022 593.708008 408.567993 C 607.054993 429.565002 613.46698 467.990967 634.106995 482.696045 C 637.60199 485.19104 639.437012 485.109009 643.629028 483.742004 C 647.362 482.531006 649.205994 480.440002 650.031982 476.60498 C 651.544983 469.578979 649.830017 465.744019 649.353027 459.450989 C 648.948975 454.177002 649.260986 448.77301 648.471985 443.516968 C 650.518005 441.049988 652.297974 437.426025 654.883972 435.490967 C 658.929993 432.453979 659.846985 433.216003 664.122009 433.151978 C 664.937988 433.141968 665.460999 432.031982 666.489014 432.252014 C 666.755005 432.307007 670.349976 435.02301 670.85498 435.445007 C 678.945984 442.160034 676.53302 450.77301 679.111023 459.688965 C 680.046021 462.927979 682.716003 468.330994 684.257019 471.541016 C 690.669006 484.942993 705.392029 510.51001 717.216003 519.223999 C 719.921997 521.215027 722.546021 522.323975 725.848022 520.966003 C 732.526978 518.232971 737.78302 497.694 738.333008 490.951996 C 738.856018 484.577026 735.554016 471.697021 737.057983 467.174988 C 737.205017 466.734985 742.745972 460.395996 743.177002 460.257996 C 743.460999 460.166992 748.487976 460.625977 749.057007 460.735962 C 752.377014 461.377991 754.763 467.927002 756.000977 470.834961 C 765.302979 492.70401 772.531006 509.316986 787.116028 528.68103 C 803.518005 550.448975 825.901001 564.969971 851.521973 546.651001 C 851.888977 546.39502 854.411011 544.348999 854.539978 544.192993 C 855.31897 543.257996 856.786987 538.166016 857.015991 536.789978 C 859.52002 522.085999 852.245972 501.317993 844.752014 488.548004 C 843.247009 485.989014 831.322021 469.835999 829.570007 468.22998 C 825.304016 464.332031 815.911011 459.615967 810.645996 456.625977 C 799.289001 450.177002 786.638977 443.700989 774.705017 438.06897 C 741.846008 422.557007 705.236023 413.14502 670.708008 402.348022 L 670.708008 402.338989 Z"/>
    <path id="path2" fill="#e0e0e0" stroke="none" d="M 206.662003 270.344971 C 208.910004 274.55603 207.716995 281.290039 207.276993 285.875977 C 205.175995 307.864014 205.938004 330.172974 205.837006 352.400024 C 205.662003 390.385986 206.029007 428.464966 205.854996 466.442017 C 205.671997 507.619995 202.259003 549.633972 204.341003 590.958984 C 205.222 608.333008 208.322006 625.515015 208.809006 642.953003 C 209.772003 677.526978 208.707993 712.47699 209.212006 746.609985 C 209.671005 777.744019 209.835999 808.565979 209.882004 839.442993 C 209.882004 841.77301 211.128998 844.26001 210.561005 846.77301 C 211.175003 847.81897 216.643005 845.874023 217.615005 845.799988 C 226.503998 845.103027 235.705002 846.020996 244.309006 845.984009 C 253.326004 845.947021 262.911987 846.63501 272.084991 847.25 C 282.872986 847.973999 292.18399 846.341003 303.082001 846.148987 C 317.337006 845.892029 332.041992 847.405029 346.39801 848.057007 C 385.585999 849.846008 426.544006 849.469971 466.080994 848.965027 C 483.712006 848.744995 499.453003 846.919006 516.580017 846.268005 C 523.367981 846.010986 530.320984 846.984009 537.099976 846.77301 C 554.106995 846.25 572.067993 844.020996 589.057007 844.25 C 595.697998 844.34198 601.762024 846.268005 608.054993 846.726013 C 613.044983 847.093018 623.677002 845.85498 627.695007 847.138977 C 628.776978 847.487976 634.703003 852.616028 634.830994 853.111023 C 634.922974 853.440979 634.895996 859.348999 634.804016 859.953979 C 634.281006 863.596008 628.960022 864.880005 626.080017 866.531006 C 615.135986 864.164978 604.119995 865.43103 593.046997 865.275024 C 563.372009 864.843994 534.29303 865.659973 504.544006 864.265991 C 456.669006 862.028015 408.59201 861.687988 360.533997 862.734009 C 344.984985 863.072998 327.528992 863.697021 312.071991 865.257019 C 300.980988 866.375977 290.761993 869.861023 279.882996 870.953003 C 255.445007 873.393005 230.328995 870.687012 206.065994 868.797974 C 201.057007 868.403015 193.453003 866.760986 190.085999 862.724976 C 186.169006 858.01001 190.875 856.495972 190.783005 853.05603 C 190.746994 851.708008 189.507996 849.763 189.306 848.002014 C 188.617996 842.067017 189.406998 835.79303 189.306 829.958008 C 189.039993 815.64801 187.544998 801.585022 186.774002 787.47699 C 183.830002 733.676025 184.610001 676.755981 189.811005 622.981995 C 192.186996 598.416016 190.251007 576.04303 190.279007 551.495972 C 190.296997 535.195007 191.479996 519.260986 191.324005 502.933014 C 191.003006 470.359009 187.481003 437.463013 185.608994 405.036011 C 184.362 383.488037 184.820999 361.609985 184.820999 339.916016 C 184.820999 324.596008 181.912994 277.325989 192.048996 266.676025 C 192.718994 265.969971 193.699997 264.924011 194.682007 264.759033 C 196.259995 264.493042 202.800003 266.18103 204.093994 267.153015 C 204.259003 267.27301 206.552002 270.161987 206.643997 270.344971 L 206.662003 270.344971 Z"/>
</svg>
