<?xml version="1.0" encoding="UTF-8"?>
<svg width="1024" height="1024" viewBox="0 0 1024 1024" xmlns="http://www.w3.org/2000/svg">
    <clipPath id="clipPath1">
        <path clip-rule="evenodd" d="M 0 896 C 0 966.692448 57.307552 1024 128 1024 L 896 1024 C 966.692444 1024 1024 966.692448 1024 896 L 1024 128 C 1024 57.307556 966.692444 0 896 0 L 128 0 C 57.307552 0 0 57.307556 0 128 Z"/>
    </clipPath>
    <path id="Rounded-Stencil" fill="#1d49d5" fill-rule="evenodd" stroke="none" clip-path="url(#clipPath1)" d="M 0 1024 L 0 0 L 1024 0 L 1024 1024 L 0 1024 Z M 388 699 L 325 839 L 185 839 L 250.028412 699 L 388 699 Z M 636 699 L 388 699 L 447 575 L 307.625 575 L 512 135 L 716.375 575 L 577 575 L 636 699 Z M 636 699 L 699 839 L 839 839 L 773.971619 699 L 636 699 Z M 577 575 L 512 435 L 447 575 L 577 575 Z"/>
</svg>
