<?xml version="1.0" encoding="UTF-8"?>
<!-- Generated by Pixelmator Pro 3.8 -->
<svg width="800" height="800" viewBox="0 0 800 800" xmlns="http://www.w3.org/2000/svg">
    <clipPath id="clipPath1">
        <path d="M 67.187332 131.187332 L 732.81398 131.187332 L 732.81398 667.513992 L 67.187332 667.513992 Z"/>
    </clipPath>
    <g id="Group" clip-path="url(#clipPath1)">
        <path id="Path" fill="#669df6" stroke="none" d="M 720.070007 439.643341 L 634.959961 413.079987 C 638.58667 429.753326 640.429993 446.766663 640.446655 463.829987 C 640.446655 475.830017 639.553345 487.829987 637.789978 499.706665 L 720.150024 499.706665 C 723.539978 499.190002 726.633301 497.516663 728.930054 494.986664 C 731.243347 492.456665 732.600037 489.206665 732.803345 485.800018 L 732.803345 453.660004 C 732.600037 450.236664 731.226685 447.003326 728.930054 444.470001 C 726.616699 441.940002 723.523315 440.266663 720.150024 439.753326"/>
        <path id="path1" fill="#669df6" stroke="none" d="M 401.563324 223.359314 C 418.313354 223.375 435.033325 225.125 451.42334 228.578003 L 420.876648 143.843689 C 420.359985 140.453003 418.67334 137.328003 416.126678 135.031311 C 413.580017 132.718689 410.313324 131.359314 406.876648 131.187317 L 394.126678 131.187317 C 390.690002 131.359314 387.42334 132.703003 384.860016 135.015686 C 382.313354 137.328003 380.643341 140.453003 380.126678 143.843689 L 353.563354 228.234314 C 369.300018 225.046997 385.330017 223.453003 401.393311 223.453003"/>
        <path id="path2" fill="#669df6" stroke="none" d="M 159.563004 463.829987 C 159.547668 446.723328 161.360001 429.643341 164.96933 412.910004 L 79.860001 439.473328 C 76.469337 440.003326 73.344337 441.676666 71.047661 444.223328 C 68.735001 446.769989 67.375671 450.033356 67.203667 453.473328 L 67.203667 485.613342 C 67.406998 489.033356 68.782005 492.269989 71.078667 494.799988 C 73.375671 497.329987 76.485001 498.986664 79.860001 499.52002 L 162.21933 499.52002 C 160.438004 487.643341 159.547668 475.660004 159.563004 463.643311 L 159.563004 463.829987 Z"/>
        <path id="path3" fill="#b2c7ff" fill-rule="evenodd" stroke="none" d="M 544.033325 319.798645 C 505.830017 281.595703 454.016663 260.1427 400 260.1427 C 359.720001 260.1427 320.32901 272.080017 286.828979 294.455017 C 253.344666 316.845642 227.235336 348.658325 211.813339 385.877014 C 196.391663 423.096649 192.360336 464.050018 200.219666 503.563324 C 208.07901 543.080017 227.485336 579.376648 255.969666 607.859985 C 284.45401 636.34668 320.751007 655.736694 360.266663 663.59668 C 399.766663 671.453369 440.736664 667.42334 477.953339 652.016602 C 515.17334 636.59668 546.986633 610.486694 569.359985 576.986694 C 591.75 543.503357 603.690002 504.110016 603.690002 463.829987 C 603.690002 409.799988 582.236694 357.986328 544.033325 319.798645 Z M 505.703308 355.048645 L 443.343323 399.42334 L 443.126678 399.330017 C 437.580017 403.393341 429.783356 402.393341 425.470001 396.955017 C 423.703308 394.736328 422.783356 392.111328 422.673309 389.470673 L 422.593353 389.439331 L 418.266693 312.720642 C 451.470001 316.830017 482.190002 331.908325 505.703308 355.048645 Z M 411.690002 439.143341 L 426.283325 457.456696 L 421.046661 480.313324 L 399.970001 490.486664 L 378.813324 480.283325 L 373.580017 457.42334 L 388.203339 439.143341 L 411.690002 439.143341 Z M 366.126678 315.408325 C 371.330017 314.236328 376.516663 313.361328 381.690002 312.720642 L 377.359985 389.564331 L 377.046692 389.720673 C 376.75 396.595673 371.109985 402.09668 364.190002 402.09668 C 361.360016 402.09668 358.736664 401.17334 356.610016 399.610016 L 356.486664 399.67334 L 293.719666 355.01767 C 313.001007 335.970642 337.690002 321.8927 366.126678 315.408325 Z M 249.626007 479.206665 C 245.875992 444.893311 253.938339 411.533325 270.95401 383.720673 L 328.266663 435.173309 L 328.20401 435.486664 C 333.376648 440.003326 334.140015 447.830017 329.828979 453.266693 C 328.063324 455.486664 325.688324 456.986694 323.157349 457.67334 L 323.094666 457.92334 L 249.626007 479.206665 Z M 347.690002 520.406616 L 318.501007 591.206665 C 291.219666 573.626709 269.485352 547.313354 257.844666 515.016724 L 333.188354 502.190002 L 333.313324 502.34668 C 334.156677 502.190002 335.016663 502.110016 335.843353 502.126648 C 341.639984 502.206665 346.843323 506.253326 348.190002 512.17334 C 348.829987 514.940002 348.516663 517.690002 347.470001 520.126648 L 347.690002 520.406616 Z M 433.860016 611.456665 C 405.453339 617.940002 377.140015 615.969971 351.5 607.206665 L 388.546661 539.969971 L 388.610016 539.969971 C 390.830017 535.800049 395.046692 533.313354 399.5 533.143311 C 401.516663 533.063354 403.563354 533.486694 405.516663 534.42334 C 408.063354 535.656677 410.046661 537.609985 411.283325 539.940002 L 411.563324 539.940002 L 448.703308 607.299988 C 443.890015 608.92334 438.92334 610.299988 433.860016 611.456665 Z M 481.736664 591.486694 L 452.236664 519.969971 L 452.329987 519.84668 C 449.610016 513.516724 452.329987 506.109985 458.563324 503.09668 C 460.156677 502.330017 461.830017 501.893341 463.486664 501.813354 C 464.486664 501.766693 465.470001 501.846649 466.453339 502.033325 L 466.580017 501.876678 L 542.579956 514.766663 C 531.453308 546.143311 510.173309 573.300049 481.736664 591.486694 Z M 550.563293 478.969971 L 476.703339 457.609985 L 476.640015 457.299988 C 470.033325 455.486664 465.970001 448.736664 467.516663 441.970001 C 468.139984 439.190002 469.609985 436.84668 471.593353 435.109985 L 471.563354 434.956665 L 528.563354 383.751984 C 537.080017 397.59668 543.533325 413.079987 547.376709 429.84668 C 551.17334 446.42334 552.126709 462.970001 550.563293 478.969971 Z"/>
    </g>
</svg>
