<svg width="91" height="32" viewBox="0 0 2147 754" xmlns="http://www.w3.org/2000/svg">
	<path fill="#000" fill-rule="evenodd" d="M 155 725 L 218 585 L 80.028412 585 L 15 725 L 155 725 Z M 466 585 L 218 585 L 277 461 L 137.625 461 L 342 21 L 546.375 461 L 407 461 L 466 585 Z M 466 585 L 603.971619 585 L 669 725 L 529 725 L 466 585 Z M 407 461 L 277 461 L 342 321 L 407 461 Z"/>
	<path fill="#000" d="M 1646.836914 352.233398 C 1646.836914 286.968323 1670.760376 230.91333 1718.608032 184.066589 C 1766.255615 137.219849 1823.511597 113.796875 1890.378418 113.796875 C 1956.444458 113.796875 2013.099976 137.420044 2060.347168 184.667175 C 2107.794434 231.914307 2131.517578 288.670013 2131.517578 354.936066 C 2131.517578 421.602539 2107.694336 478.158051 2060.046875 524.60437 C 2012.199097 571.250916 1954.442505 594.573792 1886.774902 594.573792 C 1826.915283 594.573792 1773.162476 573.853394 1725.514893 532.412109 C 1673.062622 486.566376 1646.836914 426.507477 1646.836914 352.233398 Z M 1717.40686 353.134277 C 1717.40686 404.385376 1734.623779 446.526794 1769.058105 479.559692 C 1803.292114 512.59259 1842.831055 529.108826 1887.675781 529.108826 C 1936.324341 529.108826 1977.364746 512.292297 2010.797852 478.658813 C 2044.231079 444.624908 2060.947754 403.184204 2060.947754 354.33548 C 2060.947754 304.886169 2044.431274 263.445465 2011.39856 230.012146 C 1978.565918 196.378601 1937.925903 179.562134 1889.477539 179.562134 C 1841.229492 179.562134 1800.489258 196.378601 1767.256348 230.012146 C 1734.023193 263.245239 1717.40686 304.285583 1717.40686 353.134277 Z M 1297.890747 122.505493 L 1426.11792 443.824249 L 1556.146973 122.505493 L 1632.7229 122.505493 L 1424.616455 621 L 1221.314819 122.505493 Z M 1163.057007 122.505493 L 1163.057007 586.165466 L 1093.087524 586.165466 L 1093.087524 122.505493 Z M 810.20697 343.825043 L 682.580383 122.505493 L 762.159302 122.505493 L 850.747192 279.56131 L 943.839539 122.505493 L 1024.019043 122.505493 L 890.386536 343.825043 L 1030.62561 586.165466 L 952.247864 586.165466 L 849.546021 408.689392 L 743.841125 586.165466 L 664.5625 586.165466 Z"/>
</svg>
