<?xml version="1.0" encoding="UTF-8"?>
<svg width="900" height="900" viewBox="0 0 900 900" xmlns="http://www.w3.org/2000/svg">
    <g id="kubernetes">
        <path id="path3055" fill="#326ce5" stroke="none" d="M 420.318268 115.524292 C 425.741119 112.933655 431.631012 111.443176 437.642456 111.140381 C 445.203888 110.758057 452.741089 112.265503 459.562256 115.524292 L 695.993774 228.418823 C 708.388306 234.338135 717.390747 245.532837 720.453186 258.834473 L 778.865723 512.559937 C 781.928589 525.867676 778.712341 539.834473 770.128052 550.503845 L 606.560974 753.980103 C 597.97522 764.632813 584.967651 770.830566 571.217163 770.820557 L 308.814484 770.880981 C 295.058868 770.883667 282.050385 764.674316 273.470703 754.010315 L 109.84317 550.564331 C 108.928391 549.417358 108.070724 548.226807 107.273262 546.996704 C 100.628761 536.830933 98.414871 524.430969 101.135719 512.620422 L 159.457504 258.894958 C 162.519913 245.593323 171.522461 234.398621 183.916992 228.479309 L 420.318268 115.524292 Z M 425.835297 213.208313 C 425.835297 213.341492 425.862579 213.468872 425.865509 213.601318 C 425.861847 213.975342 425.853638 214.373657 425.845337 214.776001 C 425.827423 215.642639 425.809174 216.527954 425.835297 217.229431 C 426.021667 222.237183 427.113251 226.069885 427.770264 230.683594 L 427.79483 230.88739 C 428.974243 240.671265 429.953705 248.79657 429.342468 256.352478 C 428.743866 259.221497 426.630707 261.845337 424.746857 263.669128 L 424.414276 269.655518 C 415.92276 270.35907 407.37442 271.647339 398.836151 273.585999 C 362.095917 281.927917 330.463226 300.852905 306.379944 326.405151 C 304.81723 325.33905 302.083252 323.377686 301.270325 322.777039 C 300.935211 322.822266 300.599609 322.875244 300.26178 322.928589 C 298.05304 323.277161 295.749603 323.640686 292.865204 321.960693 C 286.533051 317.698242 280.765839 311.814636 273.787415 304.727173 C 270.589874 301.336914 268.274323 298.108521 264.475281 294.840637 C 263.612549 294.09845 262.295929 293.094727 261.330933 292.331177 C 258.36084 289.963135 254.857697 288.72821 251.474579 288.612366 C 247.124817 288.46344 242.937454 290.164124 240.19722 293.601013 C 235.325668 299.711121 236.885361 309.049988 243.674149 314.462585 C 243.743073 314.517517 243.816391 314.56012 243.885788 314.61377 C 244.81868 315.370056 245.961014 316.338928 246.818497 316.972046 C 250.84993 319.948608 254.532532 321.472351 258.549377 323.835205 C 267.012054 329.061462 274.02771 333.394897 279.592377 338.619751 C 281.765411 340.936096 282.145203 345.0177 282.434418 346.78302 L 286.969543 350.834351 C 262.691772 387.370483 251.455841 432.500092 258.095917 478.483215 L 252.170013 480.206543 C 250.608185 482.223389 248.401215 485.396912 246.09288 486.344086 C 238.812363 488.637238 230.618546 489.479309 220.726379 490.516388 C 216.082123 490.902588 212.074875 490.672119 207.15123 491.604828 C 206.067566 491.81015 204.557648 492.203522 203.371948 492.481628 C 203.33075 492.489899 203.292221 492.502502 203.251007 492.511871 C 203.18634 492.526794 203.101471 492.558197 203.039368 492.572266 C 194.699432 494.587341 189.341843 502.253021 191.066635 509.805756 C 192.791824 517.360291 200.93811 521.954346 209.328094 520.145874 C 209.388687 520.132019 209.476593 520.1297 209.539719 520.115723 C 209.634445 520.093994 209.717834 520.047974 209.811829 520.025024 C 210.981384 519.768311 212.447067 519.482666 213.470184 519.208679 C 218.310883 517.912598 221.816711 516.008301 226.168549 514.340942 C 235.53093 510.983002 243.285202 508.177826 250.839661 507.084778 C 253.637589 506.865662 256.568451 508.56601 258.349396 509.599243 C 258.576782 509.731171 258.785431 509.852203 258.972656 509.957001 L 265.140442 508.898834 C 279.333771 552.903198 309.0784 588.470459 346.742554 610.788086 L 344.172668 616.955811 C 345.098938 619.35083 346.120636 622.591248 345.430603 624.956421 C 342.684174 632.078308 337.97995 639.595581 332.623199 647.976196 C 330.02948 651.848022 327.374969 654.852783 325.034424 659.283752 C 324.474304 660.343994 323.760986 661.972717 323.220337 663.093323 C 319.583679 670.874268 322.251282 679.835938 329.236969 683.199036 C 336.26651 686.583191 344.992096 683.013916 348.76825 675.217224 C 348.773773 675.206238 348.793091 675.19812 348.798462 675.187012 C 348.800293 675.182861 348.799377 675.177368 348.798462 675.171936 C 348.797546 675.166443 348.7966 675.16095 348.798462 675.156738 C 349.336304 674.051392 350.098328 672.598389 350.552032 671.558899 C 352.556824 666.966187 353.223877 663.030396 354.633667 658.58844 C 358.377502 649.184265 360.434448 639.316895 365.588196 633.168396 C 366.999451 631.484741 369.300293 630.837219 371.685791 630.198547 L 374.890564 624.393555 C 407.725647 636.996948 444.479248 640.378967 481.194061 632.042786 C 489.569611 630.141113 497.655426 627.679932 505.472137 624.726074 C 506.372833 626.32373 508.046753 629.39502 508.495544 630.168274 C 510.919708 630.95697 513.565613 631.364258 515.721497 634.552246 C 519.577393 641.139893 522.214233 648.933228 525.426697 658.346558 C 526.836731 662.788391 527.533508 666.724426 529.538574 671.317078 C 529.995544 672.363831 530.753723 673.83728 531.292114 674.945129 C 535.060364 682.767151 543.813538 686.348633 550.853699 682.957214 C 557.83844 679.592346 560.509033 670.631409 556.870239 662.85144 C 556.329529 661.730957 555.58606 660.102173 555.026001 659.041992 C 552.68512 654.611084 550.031128 651.636292 547.437195 647.764587 C 542.080017 639.384277 537.63678 632.422363 534.890015 625.300537 C 533.900208 622.134888 534.760437 620.000732 535.589783 617.943359 C 535.722717 617.613525 535.854858 617.285767 535.978455 616.955933 C 535.442688 616.341797 534.296143 612.872986 533.620178 611.241699 C 572.762512 588.130005 601.633667 551.23645 615.192078 508.62677 C 617.022949 508.91452 620.205139 509.477509 621.238892 509.684998 C 621.530823 509.492462 621.819458 509.291901 622.110229 509.089874 C 623.939148 507.819153 625.849915 506.491547 629.160278 506.752258 C 636.714783 507.84494 644.468811 510.651001 653.83136 514.008423 C 658.18335 515.675537 661.688965 517.610535 666.529785 518.906372 C 667.552856 519.180298 669.018494 519.435791 670.188049 519.692505 C 670.282104 519.715515 670.365417 519.761597 670.460205 519.783142 C 670.523315 519.797302 670.611267 519.7995 670.671814 519.813354 C 679.062317 521.619629 687.210022 517.028198 688.933289 509.473236 C 690.656189 501.920074 685.301025 494.252625 676.960571 492.239777 C 675.747375 491.963837 674.026855 491.495361 672.848755 491.272217 C 667.924988 490.339844 663.917786 490.569794 659.27356 490.183807 C 649.381348 489.147308 641.187622 488.30426 633.907043 486.011475 C 630.938538 484.859894 628.826721 481.327637 627.799744 479.873962 L 622.085449 478.21106 C 625.048157 456.776764 624.249268 434.46933 619.122498 412.149353 C 613.947937 389.62149 604.803162 369.017578 592.607056 350.864563 C 594.072815 349.532043 596.841064 347.080811 597.625916 346.35968 C 597.855347 343.820801 597.658325 341.158936 600.28656 338.347656 C 605.850952 333.122498 612.867188 328.789734 621.329529 323.56311 C 625.346313 321.199951 629.059387 319.676697 633.090637 316.699951 C 634.002258 316.026794 635.247131 314.960754 636.204834 314.190491 C 642.992126 308.776123 644.55481 299.437744 639.681702 293.328918 C 634.808594 287.220032 625.365601 286.644653 618.578247 292.059082 C 617.612122 292.824219 616.301208 293.822388 615.433899 294.568481 C 611.63501 297.83667 609.288879 301.064636 606.091553 304.455078 C 599.113525 311.542908 593.345703 317.456055 587.013733 321.718872 C 584.595703 323.126526 581.187439 322.864441 579.16394 322.708801 C 578.891296 322.687866 578.643738 322.668823 578.427185 322.656067 L 573.04541 326.49585 C 542.357727 294.316406 500.575623 273.742737 455.585785 269.746155 C 455.459961 267.860779 455.295074 264.452881 455.253174 263.427246 C 453.411377 261.664795 451.186432 260.160095 450.62738 256.352417 C 450.027557 248.937622 450.988281 240.974365 452.139313 231.433533 L 452.229767 230.683533 C 452.88681 226.069824 453.978424 222.237122 454.164795 217.22937 C 454.192139 216.494751 454.173523 215.546326 454.15564 214.635193 C 454.145813 214.134399 454.1362 213.644836 454.134552 213.208252 C 454.133636 204.525818 447.799377 197.485657 439.984894 197.486511 C 432.170471 197.487305 425.834351 204.525879 425.835297 213.208313 Z M 445.366577 521.385498 C 443.477448 520.47583 441.490021 520.073975 439.531372 520.145935 C 435.222321 520.304199 431.134857 522.707886 428.979614 526.737 L 428.919159 526.737 L 393.000916 591.680054 C 417.858398 600.150146 445.310211 602.0448 472.849487 595.79187 C 477.763275 594.676208 482.567688 593.337402 487.240967 591.770752 L 451.232025 526.706787 L 450.9599 526.706787 C 449.755829 524.455566 447.842896 522.578003 445.366577 521.385498 Z M 504.444214 490.093048 C 503.502686 489.919769 502.539429 489.83255 501.571991 489.881439 C 499.959473 489.962891 498.34259 490.375702 496.794922 491.121063 C 490.749908 494.03241 488.120728 501.191467 490.748077 507.296356 L 490.65741 507.417267 L 519.258972 576.502441 C 546.828613 558.938965 567.462708 532.693604 578.245911 502.398376 L 504.565186 489.941895 L 504.444214 490.093048 Z M 389.796143 499.888977 C 388.489624 494.165253 383.446198 490.262573 377.823395 490.183807 C 377.020081 490.172577 376.191498 490.245087 375.37442 490.395477 L 375.253479 490.244293 L 302.207611 502.64035 C 313.480835 533.830811 334.554932 559.252136 361.013153 576.230347 L 389.312347 507.840576 L 389.100708 507.568451 C 390.110077 505.22345 390.407776 502.568512 389.796143 499.888977 Z M 451.352936 429.35257 L 428.586609 429.35257 L 414.406738 447.009369 L 419.486115 469.080292 L 439.984894 478.936615 L 460.423218 469.110535 L 465.502563 447.039581 L 451.352936 429.35257 Z M 370.47644 425.512878 L 314.905975 375.807861 C 298.413727 402.675232 290.600403 434.901001 294.225891 468.052399 L 365.457672 447.493134 L 365.518066 447.251251 C 367.980774 446.578339 370.274597 445.137085 371.98822 442.988251 C 376.171539 437.742432 375.431885 430.17569 370.416046 425.815216 L 370.47644 425.512878 Z M 582.901978 420.373016 C 579.17981 404.168335 572.92749 389.220978 564.670715 375.838013 L 509.40271 425.301178 L 509.432892 425.452362 C 507.506134 427.127197 506.08371 429.394073 505.47226 432.073669 C 503.979706 438.614777 507.919769 445.13623 514.330872 446.888397 L 514.391296 447.190765 L 585.985901 467.810486 C 587.502441 452.365082 586.579468 436.383392 582.901978 420.373016 Z M 418.065125 381.461609 L 422.26767 307.236633 C 417.252075 307.844604 412.21756 308.693176 407.180817 309.836731 C 379.607574 316.09729 355.682159 329.689819 336.976959 348.083008 L 397.83844 391.227234 L 397.95932 391.166809 C 400.020905 392.672668 402.5578 393.555298 405.306274 393.555298 C 412.015869 393.555298 417.480896 388.253052 417.762726 381.612793 L 418.065125 381.461609 Z M 542.509094 348.113281 C 519.695557 325.772705 489.924255 311.195923 457.732391 307.236633 L 461.934906 381.340759 L 461.995392 381.370972 C 462.103577 383.921631 463.002747 386.448181 464.716492 388.596924 C 468.899994 393.842133 476.461914 394.814758 481.829041 390.894775 L 482.04068 390.985413 L 542.509094 348.113281 Z"/>
    </g>
    <path id="longhorn" fill="#5f224a" stroke="none" d="M 48.460938 881.9375 C 33.864788 881.894775 22.042683 870.055908 22 855.439453 L 22 703.408203 C 22.042677 688.791748 33.864765 676.952881 48.460938 676.910156 L 245.539063 676.910156 C 260.135162 676.952942 271.957367 688.791809 272 703.408203 L 272 855.439453 C 271.957367 870.055847 260.135162 881.894714 245.539063 881.9375 L 48.460938 881.9375 Z M 143.701172 843.115234 L 150.298828 843.115234 C 163.978958 843.09845 175.261765 832.382202 176.001953 818.703125 L 184.195313 773.789063 C 184.20491 773.736572 184.205841 773.685303 184.214844 773.632813 L 236.552734 763.167969 C 241.885544 762.101501 245.973663 757.793823 246.765625 752.40625 L 249.986328 730.498047 C 251.014603 723.459595 246.152771 716.918518 239.125 715.882813 C 232.097229 714.847046 225.561798 719.709473 224.521484 726.746094 L 222.621094 739.669922 L 147 754.789063 L 71.378906 739.669922 L 69.478516 726.746094 C 68.43821 719.709473 61.902767 714.847046 54.875 715.882813 C 47.847233 716.918518 42.985394 723.459595 44.013672 730.498047 L 47.234375 752.40625 C 48.026321 757.793823 52.114464 762.101501 57.447266 763.167969 L 110.728516 773.822266 L 117.990234 818.554688 C 118.654114 832.295349 129.963516 843.098755 143.701172 843.115234 Z M 143.701172 817.341797 C 143.701477 816.64917 143.644745 815.957031 143.533203 815.273438 L 137.679688 779.208984 L 144.480469 780.570313 C 145.310211 780.736023 146.153915 780.818359 147 780.818359 C 147.846085 780.818359 148.689789 780.736023 149.519531 780.570313 L 157.068359 779.060547 L 150.507813 815.025391 C 150.368271 815.789612 150.29892 816.564941 150.298828 817.341797 L 143.701172 817.341797 Z"/>
    <path id="prometheus" fill="#e75225" stroke="none" d="M 767.811768 48 C 836.362122 48 892.624573 103.576294 892.499817 171.128662 C 892.437439 239.803772 836.362122 294.569153 766.314758 294.569153 C 697.88916 294.506836 642.5 238.868103 642.5 170.192993 C 642.687134 103.014954 699.074341 48 767.811768 48 Z M 729.950073 91.226013 C 731.509399 98.898132 729.950073 106.071289 727.642151 113.182068 C 726.082764 118.047363 723.774902 122.787903 722.465027 127.715515 C 720.28186 135.949036 717.786865 144.120178 716.851257 152.416077 C 715.541382 164.392151 720.28186 174.995911 728.390686 185.537354 C 715.229492 182.792847 703.253418 180.297791 691.027893 177.67804 C 691.090271 178.863159 691.027893 179.362183 691.090271 179.73645 C 694.583313 190.090698 700.883179 198.698486 707.869202 206.994385 C 708.617737 207.805298 710.239502 208.30426 711.549377 208.30426 C 748.787354 208.366638 785.962952 208.366638 823.200989 208.30426 C 824.386108 208.30426 825.883118 208.117126 826.631592 207.368652 C 834.677979 199.072754 840.728394 189.591736 844.533325 177.615662 C 830.873108 180.297791 817.899109 182.792847 804.987427 185.287842 C 807.5448 180.235413 810.601196 175.682068 812.285339 170.816772 C 818.086182 154.037842 815.715942 137.820313 807.295288 122.538391 C 800.558777 110.250427 794.321289 98.024902 797.689514 83.242004 C 790.578735 90.228027 787.834229 99.085327 786.087708 108.316833 C 784.341248 117.361206 783.405579 126.468018 782.033325 135.699524 C 781.846191 135.450073 781.59668 135.262939 781.59668 134.95105 C 781.409607 134.015442 781.347168 133.017395 781.222473 132.081787 C 780.41156 117.049377 777.417542 102.578308 771.242432 88.855774 C 767.562256 80.747009 763.507874 72.451111 767.250427 62.782959 C 764.692993 64.155212 762.385132 65.465027 760.700989 67.398682 C 755.710999 73.137207 753.714966 79.873718 753.216003 87.296387 C 752.779358 93.65863 752.093262 100.083313 751.032837 106.383179 C 749.722961 112.932556 747.789307 119.357239 743.360718 125.470032 C 741.738953 112.24646 741.551819 99.459534 729.950073 91.226013 Z M 825.883118 219.656555 L 709.241455 219.656555 L 709.241455 239.86615 L 825.945435 239.86615 L 825.945435 219.656555 Z M 732.320313 250.15802 C 732.257935 266.936951 749.47345 279.474365 770.68103 278.538757 C 788.270874 277.790222 803.864685 264.00531 802.554749 250.15802 C 802.617126 250.15802 732.320313 250.15802 732.320313 250.15802 Z"/>
    <path id="k3s" fill="#ffc61c" stroke="none" d="M 847.246826 580.910889 L 610.752991 580.910889 C 593.23761 580.962158 579.05127 595.146179 578.999939 612.658813 L 578.999939 794.813965 C 579.05127 812.32666 593.23761 826.510681 610.752991 826.561951 L 847.246826 826.561951 C 864.762207 826.510681 878.948547 812.32666 878.999939 794.813965 L 878.999939 612.658813 C 878.948547 595.146179 864.762207 580.962158 847.246826 580.910889 Z M 705.764893 759.543762 L 648.049316 793.079163 C 640.674927 797.363892 631.222839 794.860229 626.937378 787.487 C 622.651978 780.113831 625.156006 770.663147 632.530396 766.378418 L 690.245972 732.843018 C 697.620361 728.558228 707.072449 731.061951 711.35791 738.435181 C 715.643311 745.80835 713.139282 755.259033 705.764893 759.543762 Z M 728.470215 708.450928 L 728.400818 708.450928 C 724.304993 708.433167 720.384033 706.789246 717.500488 703.880859 C 714.617004 700.972473 713.007141 697.037903 713.025146 692.942749 L 713.314758 626.463867 C 713.352356 617.963013 720.254517 611.091309 728.756714 611.089844 L 728.826111 611.089844 C 737.355042 611.127136 744.238892 618.070435 744.20166 626.598022 L 743.912048 693.076904 C 743.874451 701.577698 736.972351 708.449463 728.470215 708.450928 Z M 830.590393 787.443298 C 828.543701 790.99115 825.170532 793.5802 821.213745 794.640198 C 817.256958 795.700256 813.041016 795.144348 809.494324 793.094971 L 751.694275 759.729248 C 744.307861 755.465332 741.7771 746.021729 746.041687 738.636475 C 750.306335 731.25116 759.751343 728.720825 767.137756 732.984741 L 824.937805 766.350525 C 828.485107 768.397949 831.073486 771.770569 832.133545 775.726318 C 833.193665 779.682007 832.63855 783.89679 830.590393 787.443298 Z"/>
    <g id="cilium">
        <path id="Path" fill="#e83030" stroke="none" d="M 110.479721 190.759521 L 88.520645 151.915833 L 110.479721 113.07251 L 154.196976 113.07251 L 176.156052 151.915833 L 154.196976 190.759521 L 110.479721 190.759521 Z"/>
        <path id="path1" fill="#6b91c7" stroke="none" d="M 110.479721 284.747253 L 88.520645 245.903564 L 110.479721 207.060303 L 154.196976 207.060303 L 176.156052 245.903564 L 154.196976 284.747253 L 110.479721 284.747253 Z"/>
        <path id="path2" fill="#f9c31f" stroke="none" d="M 110.479721 96.771301 L 88.520645 57.92804 L 110.479721 19.084534 L 154.196976 19.084534 L 176.156052 57.92804 L 154.196976 96.771301 L 110.479721 96.771301 Z"/>
        <path id="path3" fill="#795aa5" stroke="none" d="M 191.677826 237.750732 L 169.71875 198.907471 L 191.677826 160.063843 L 235.395065 160.063843 L 257.354156 198.907471 L 235.395065 237.750732 L 191.677826 237.750732 Z"/>
        <path id="path4" fill="#f17423" stroke="none" d="M 191.677826 143.763367 L 169.71875 104.920105 L 191.677826 66.076477 L 235.395065 66.076477 L 257.354156 104.920105 L 235.395065 143.763367 L 191.677826 143.763367 Z"/>
        <path id="path5" fill="#97c639" stroke="none" d="M 29.313187 237.75116 L 7.35415 198.907898 L 29.313187 160.064209 L 73.030273 160.064209 L 94.989357 198.907898 L 73.030273 237.75116 L 29.313187 237.75116 Z"/>
        <path id="path6" fill="#c9db70" stroke="none" d="M 29.313187 143.763367 L 7.35415 104.920105 L 29.313187 66.076477 L 73.030273 66.076477 L 94.989357 104.920105 L 73.030273 143.763367 L 29.313187 143.763367 Z"/>
    </g>
</svg>
