<svg width="123" height="32" viewBox="0 0 2896 754" xmlns="http://www.w3.org/2000/svg">
	<path fill="#1447e6" d="M 2688.957031 294.039063 L 2756.632813 294.039063 L 2756.632813 320.207031 C 2769.065186 307.173126 2780.09375 298.250031 2789.71875 293.4375 C 2799.544434 288.424469 2811.174316 285.917969 2824.609375 285.917969 C 2842.455811 285.917969 2861.104004 291.733002 2880.554688 303.363281 L 2849.574219 365.324219 C 2836.740723 356.10022 2824.208496 351.488281 2811.976563 351.488281 C 2775.080566 351.488281 2756.632813 379.360413 2756.632813 435.105469 L 2756.632813 587 L 2688.957031 587 Z M 2614.964844 456.460938 L 2405.019531 456.460938 C 2406.824219 480.52356 2414.644531 499.673096 2428.480469 513.910156 C 2442.316406 527.946655 2460.0625 534.964844 2481.71875 534.964844 C 2498.5625 534.964844 2512.498535 530.954468 2523.527344 522.933594 C 2534.355469 514.91272 2546.6875 500.074341 2560.523438 478.417969 L 2617.671875 510.300781 C 2608.848877 525.339905 2599.524902 538.223267 2589.699219 548.951172 C 2579.873535 559.679077 2569.346436 568.501953 2558.117188 575.419922 C 2546.887939 582.337891 2534.756592 587.401001 2521.722656 590.609375 C 2508.688721 593.817749 2494.552246 595.421875 2479.3125 595.421875 C 2435.598633 595.421875 2400.508057 581.385559 2374.039063 553.3125 C 2347.570068 525.03894 2334.335938 487.541901 2334.335938 440.820313 C 2334.335938 394.499756 2347.169189 357.002747 2372.835938 328.328125 C 2398.703369 300.054535 2432.991943 285.917969 2475.703125 285.917969 C 2518.81543 285.917969 2552.903564 299.653503 2577.96875 327.125 C 2602.833496 354.395966 2615.265625 392.193756 2615.265625 440.519531 Z M 2545.484375 401.117188 C 2536.059814 365.023254 2513.301025 346.976563 2477.207031 346.976563 C 2468.985596 346.976563 2461.265625 348.229797 2454.046875 350.736328 C 2446.828125 353.242859 2440.260986 356.852203 2434.345703 361.564453 C 2428.43042 366.276703 2423.367188 371.941376 2419.15625 378.558594 C 2414.945313 385.175812 2411.737061 392.695282 2409.53125 401.117188 Z M 2244.101563 357.203125 L 2244.101563 587 L 2176.425781 587 L 2176.425781 357.203125 L 2147.550781 357.203125 L 2147.550781 294.039063 L 2176.425781 294.039063 L 2176.425781 186.660156 L 2244.101563 186.660156 L 2244.101563 294.039063 L 2296.738281 294.039063 L 2296.738281 357.203125 Z M 2094.613281 343.96875 L 2038.667969 373.746094 C 2029.844971 355.699127 2018.916748 346.675781 2005.882813 346.675781 C 1999.666626 346.675781 1994.352905 348.73111 1989.941406 352.841797 C 1985.529907 356.952484 1983.324219 362.216125 1983.324219 368.632813 C 1983.324219 379.86203 1996.35791 390.990845 2022.425781 402.019531 C 2058.319092 417.459717 2082.481689 431.696564 2094.914063 444.730469 C 2107.346436 457.764374 2113.5625 475.309784 2113.5625 497.367188 C 2113.5625 525.640747 2103.135498 549.302002 2082.28125 568.351563 C 2062.028564 586.39856 2037.565186 595.421875 2008.890625 595.421875 C 1959.762817 595.421875 1924.972778 571.459839 1904.519531 523.535156 L 1962.269531 496.765625 C 1970.290405 510.802155 1976.40625 519.72522 1980.617188 523.535156 C 1988.838623 531.154968 1998.664063 534.964844 2010.09375 534.964844 C 2032.953125 534.964844 2044.382813 524.537842 2044.382813 503.683594 C 2044.382813 491.652283 2035.560059 480.423218 2017.914063 469.996094 C 2011.096313 466.587219 2004.278687 463.278656 1997.460938 460.070313 C 1990.643188 456.861969 1983.725342 453.553406 1976.707031 450.144531 C 1957.055908 440.51947 1943.220093 430.894592 1935.199219 421.269531 C 1924.972656 409.037689 1919.859375 393.296967 1919.859375 374.046875 C 1919.859375 348.580597 1928.581909 327.526123 1946.027344 310.882813 C 1963.873779 294.239502 1985.529785 285.917969 2010.996094 285.917969 C 2048.493652 285.917969 2076.365723 305.268036 2094.613281 343.96875 Z M 1656.375 294.039063 L 1656.375 462.175781 C 1656.375 510.702087 1675.524536 534.964844 1713.824219 534.964844 C 1752.123901 534.964844 1771.273438 510.702087 1771.273438 462.175781 L 1771.273438 294.039063 L 1838.949219 294.039063 L 1838.949219 463.679688 C 1838.949219 487.140747 1836.041748 507.393158 1830.226563 524.4375 C 1824.611938 539.677124 1814.886841 553.41272 1801.050781 565.644531 C 1778.191284 585.496216 1749.116089 595.421875 1713.824219 595.421875 C 1678.73291 595.421875 1649.757935 585.496216 1626.898438 565.644531 C 1612.861938 553.41272 1602.936279 539.677124 1597.121094 524.4375 C 1591.50647 510.802002 1588.699219 490.549622 1588.699219 463.679688 L 1588.699219 294.039063 Z M 1502.976563 78.980469 L 1502.976563 587 L 1435.300781 587 L 1435.300781 78.980469 Z M 1369.730469 306.671875 L 1369.730469 396.605469 C 1354.290283 377.756409 1340.454468 364.822937 1328.222656 357.804688 C 1316.191406 350.585907 1302.05481 346.976563 1285.8125 346.976563 C 1260.346191 346.976563 1239.191528 355.899658 1222.347656 373.746094 C 1205.503784 391.592529 1197.082031 413.950378 1197.082031 440.820313 C 1197.082031 468.291809 1205.203003 490.850159 1221.445313 508.496094 C 1237.888062 526.142029 1258.842285 534.964844 1284.308594 534.964844 C 1300.550903 534.964844 1314.887939 531.45575 1327.320313 524.4375 C 1339.351563 517.619751 1353.488159 504.385529 1369.730469 484.734375 L 1369.730469 574.066406 C 1342.259033 588.303467 1314.787842 595.421875 1287.316406 595.421875 C 1241.998413 595.421875 1204.100464 580.783997 1173.621094 551.507813 C 1143.141724 522.031128 1127.902344 485.436401 1127.902344 441.722656 C 1127.902344 398.008911 1143.342285 361.113434 1174.222656 331.035156 C 1205.103027 300.956879 1243.001099 285.917969 1287.917969 285.917969 C 1316.793091 285.917969 1344.063721 292.835876 1369.730469 306.671875 Z M 871.9375 343.96875 L 815.992188 373.746094 C 807.16925 355.699127 796.240967 346.675781 783.207031 346.675781 C 776.990845 346.675781 771.677124 348.73111 767.265625 352.841797 C 762.854126 356.952484 760.648438 362.216125 760.648438 368.632813 C 760.648438 379.86203 773.68219 390.990845 799.75 402.019531 C 835.643433 417.459717 859.805908 431.696564 872.238281 444.730469 C 884.670654 457.764374 890.886719 475.309784 890.886719 497.367188 C 890.886719 525.640747 880.459717 549.302002 859.605469 568.351563 C 839.352783 586.39856 814.889465 595.421875 786.214844 595.421875 C 737.086975 595.421875 702.296997 571.459839 681.84375 523.535156 L 739.59375 496.765625 C 747.614624 510.802155 753.730469 519.72522 757.941406 523.535156 C 766.162781 531.154968 775.98822 534.964844 787.417969 534.964844 C 810.277466 534.964844 821.707031 524.537842 821.707031 503.683594 C 821.707031 491.652283 812.884216 480.423218 795.238281 469.996094 C 788.420532 466.587219 781.602905 463.278656 774.785156 460.070313 C 767.967407 456.861969 761.0495 453.553406 754.03125 450.144531 C 734.380127 440.51947 720.544312 430.894592 712.523438 421.269531 C 702.296814 409.037689 697.183594 393.296967 697.183594 374.046875 C 697.183594 348.580597 705.906189 327.526123 723.351563 310.882813 C 741.197998 294.239502 762.854065 285.917969 788.320313 285.917969 C 825.817871 285.917969 853.690002 305.268036 871.9375 343.96875 Z M 438.210938 371.339844 L 438.210938 311.484375 C 467.888184 311.484375 487.839783 308.175812 498.066406 301.558594 C 516.313904 289.928314 525.4375 271.28009 525.4375 245.613281 C 525.4375 225.761597 518.820374 209.619873 505.585938 197.1875 C 492.552002 184.554626 475.608185 178.238281 454.753906 178.238281 C 435.303284 178.238281 420.264374 182.9505 409.636719 192.375 C 399.410095 202.000061 391.790375 218.242065 386.777344 241.101563 L 316.996094 241.101563 C 324.214874 197.387817 339.053284 165.354919 361.511719 145.001953 C 383.970154 124.648987 415.351349 114.472656 455.65625 114.472656 C 496.362183 114.472656 529.548035 126.503784 555.214844 150.566406 C 580.881653 174.428528 593.714844 205.20813 593.714844 242.90625 C 593.714844 285.41687 576.871277 318.502472 543.183594 342.164063 C 581.683777 364.823029 600.933594 401.618225 600.933594 452.550781 C 600.933594 494.259338 586.897278 528.347534 558.824219 554.816406 C 530.75116 581.285278 494.758057 594.519531 450.84375 594.519531 C 394.898163 594.519531 353.390747 573.96637 326.320313 532.859375 C 315.091095 515.614502 307.972656 491.752747 304.964844 461.273438 L 372.640625 461.273438 C 376.250031 483.731873 385.022705 500.926361 398.958984 512.857422 C 412.895264 524.788452 431.092346 530.753906 453.550781 530.753906 C 476.209747 530.753906 494.958252 523.234436 509.796875 508.195313 C 524.635498 492.755127 532.054688 473.204559 532.054688 449.542969 C 532.054688 418.261566 520.925903 396.003967 498.667969 382.769531 C 485.634033 375.149689 465.481903 371.339844 438.210938 371.339844 Z M 82.386719 78.980469 L 82.386719 388.785156 L 177.734375 294.039063 L 268.570313 294.039063 L 141.339844 417.058594 L 277.894531 587 L 190.066406 587 L 93.214844 463.378906 L 82.386719 474.207031 L 82.386719 587 L 14.710938 587 L 14.710938 78.980469 Z"/>
</svg>
